<?xml version="1.0" encoding="utf-8"?>
<!-- Generated by IcoMoon.io -->
<!DOCTYPE svg PUBLIC "-//W3C//DTD SVG 1.1//EN" "http://www.w3.org/Graphics/SVG/1.1/DTD/svg11.dtd">
<svg version="1.1" xmlns="http://www.w3.org/2000/svg" xmlns:xlink="http://www.w3.org/1999/xlink" width="32" height="32" viewBox="0 0 32 32">
<path d="M16 0c-8.838 0-16 7.162-16 16 0 8.836 7.162 16 16 16s16-7.164 16-16c0-8.838-7.163-16-16-16zM19 22c0.896 0.958 1.459 1.875 0.5 3-0.982 1.152-2.305 0.694-3 0l-7.5-7.5c-1-0.916-0.834-2.021 0-3l7.5-7.5c0.695-0.693 2.009-1.009 3 0 1.125 1.146 0.195 2.306-0.5 3l-6 6 6 6z"></path>
</svg>
