<?xml version="1.0" encoding="utf-8"?>
<!-- Generated by IcoMoon.io -->
<!DOCTYPE svg PUBLIC "-//W3C//DTD SVG 1.1//EN" "http://www.w3.org/Graphics/SVG/1.1/DTD/svg11.dtd">
<svg version="1.1" xmlns="http://www.w3.org/2000/svg" xmlns:xlink="http://www.w3.org/1999/xlink" width="32" height="32" viewBox="0 0 32 32">
<path d="M27.938 2h-23.938c-1.104 0-2 0.896-2 2v23.938c0 1.104 0.896 2 2 2h23.938c1.104 0 2-0.896 2-2v-23.938c0-1.104-0.896-2-2-2zM29 27c0 1.104-0.896 2-2 2h-22c-1.104 0-2-0.896-2-2v-22c0-1.104 0.896-2 2-2h22c1.104 0 2 0.896 2 2v22z"></path>
<path d="M15 20h1v1h-1v-1z"></path>
<path d="M17 20h1v1h-1v-1z"></path>
<path d="M19 20h1v1h-1v-1z"></path>
<path d="M17.155 12.011l0.846 0.534-6.077 9.622-0.845-0.534 6.077-9.622z"></path>
<path d="M10.44 13.809l-0.587-0.809-4.853 3.471 0.040 0.029-0.040 0.029 4.853 3.471 0.587-0.809-3.7-2.691z"></path>
<path d="M21 13.809l0.588-0.809 4.852 3.471-0.040 0.029 0.040 0.029-4.852 3.471-0.588-0.809 3.701-2.691z"></path>
</svg>
