<?xml version="1.0" encoding="utf-8"?>
<!-- Generated by IcoMoon.io -->
<!DOCTYPE svg PUBLIC "-//W3C//DTD SVG 1.1//EN" "http://www.w3.org/Graphics/SVG/1.1/DTD/svg11.dtd">
<svg version="1.1" xmlns="http://www.w3.org/2000/svg" xmlns:xlink="http://www.w3.org/1999/xlink" width="32" height="32" viewBox="0 0 32 32">
<path d="M29.988 1.5h-6.488c-3.34 0-5.924 0.899-7.5 2.5-1.576-1.599-4.162-2.5-7.5-2.5h-6.5c-1.002 0-2 0.857-2 1.909v22.091c0 1.052 0.998 2 2 2h6.5c2.424 0 4.055 0.466 5 1.5 0.43 0.469 1.392 1 2.498 1s2.079-0.534 2.502-1c0.942-1.034 2.574-1.5 5-1.5h6.485c1.003 0 2.015-0.948 2.015-2v-22c0.002-1.051-1.012-2-2.012-2zM14.5 26c-1.616-0.979-3.474-1.5-6-1.5h-5.5l-0.018-20h5.518c3.883 0 6 1.833 6 3v18.5zM23.49 24.5c-2.528 0-4.373 0.523-5.99 1.5v-18.5c0-1.167 2.114-3 6-3h5.5v20h-5.51z"></path>
</svg>
