<?xml version="1.0" encoding="utf-8"?>
<!-- Generated by IcoMoon.io -->
<!DOCTYPE svg PUBLIC "-//W3C//DTD SVG 1.1//EN" "http://www.w3.org/Graphics/SVG/1.1/DTD/svg11.dtd">
<svg version="1.1" xmlns="http://www.w3.org/2000/svg" xmlns:xlink="http://www.w3.org/1999/xlink" width="32" height="32" viewBox="0 0 32 32">
<path d="M27.048 0.106c-2.619 0-4.75 2.131-4.75 4.75 0 1.332 0.553 2.537 1.439 3.399l-2.219 4.588c-0.2-0.026-0.403-0.043-0.61-0.043-0.953 0-1.838 0.284-2.582 0.769l-2.46-1.826c0.043-0.257 0.071-0.52 0.071-0.789 0-2.619-2.131-4.75-4.75-4.75s-4.75 2.131-4.75 4.75c0 1.332 0.553 2.536 1.439 3.399l-2.22 4.588c-0.2-0.026-0.403-0.044-0.61-0.044-2.619 0-4.75 2.131-4.75 4.75s2.131 4.75 4.75 4.75 4.75-2.131 4.75-4.75c0-1.332-0.553-2.536-1.439-3.399l2.219-4.588c0.2 0.026 0.403 0.043 0.61 0.043 1.255 0 2.394-0.492 3.243-1.29l2.023 1.502c-0.188 0.51-0.296 1.059-0.296 1.634 0 2.619 2.131 4.75 4.75 4.75s4.75-2.131 4.75-4.75c0-1.332-0.553-2.537-1.44-3.4l2.219-4.588c0.2 0.026 0.404 0.043 0.611 0.043 2.619 0 4.75-2.131 4.75-4.75s-2.131-4.749-4.75-4.749zM5.047 25.398c-0.965 0-1.75-0.785-1.75-1.75s0.785-1.75 1.75-1.75 1.75 0.785 1.75 1.75-0.785 1.75-1.75 1.75zM11.187 12.704c-0.965 0-1.75-0.785-1.75-1.75s0.785-1.75 1.75-1.75 1.75 0.785 1.75 1.75-0.785 1.75-1.75 1.75zM20.908 19.3c-0.965 0-1.75-0.785-1.75-1.75s0.785-1.75 1.75-1.75 1.75 0.785 1.75 1.75-0.785 1.75-1.75 1.75zM27.048 6.606c-0.965 0-1.75-0.785-1.75-1.75s0.785-1.75 1.75-1.75 1.75 0.785 1.75 1.75-0.785 1.75-1.75 1.75z"></path>
</svg>
