<?xml version="1.0" encoding="utf-8"?>
<!-- Generated by IcoMoon.io -->
<!DOCTYPE svg PUBLIC "-//W3C//DTD SVG 1.1//EN" "http://www.w3.org/Graphics/SVG/1.1/DTD/svg11.dtd">
<svg version="1.1" xmlns="http://www.w3.org/2000/svg" xmlns:xlink="http://www.w3.org/1999/xlink" width="32" height="32" viewBox="0 0 32 32">
<path d="M4.285 15.44c-1.394 0.936-3.452 2.237-3.452 5.805 0 3.097 1.773 3.553 3.555 1.827 0.423 1.064 1.36 2.366 2.707 3.156-1.77 0.548-2.822 1.279-2.822 2.513 0 1.795 2.424 3.258 5.578 3.258 2.685 0 4.925-1.245 5.541-2.664 0.183 0.025 0.378 0.036 0.573 0.036 0.204 0 0.388-0.012 0.582-0.036 0.619 1.419 2.857 2.664 5.544 2.664 3.153 0 5.598-1.395 5.598-3.189 0-1.234-1.051-2.502-2.834-3.061 1.2-0.686 2.046-1.395 2.526-2.321 1.692 1.453 3.165 1.268 3.143-2.125 0-2.799-1.635-4.237-2.812-5.325 0.479-0.686 1.108-1.748 1.108-2.685 0-1.407-0.719-2.298-1.703-3.029-0.067-5.771-4.923-10.263-10.74-10.263-5.805 0-10.892 4.492-10.961 10.263-0.981 0.732-1.69 1.622-1.69 3.041 0 0.617 0.342 1.61 0.56 2.137z"></path>
</svg>
