<?xml version="1.0" encoding="utf-8"?>
<!-- Generated by IcoMoon.io -->
<!DOCTYPE svg PUBLIC "-//W3C//DTD SVG 1.1//EN" "http://www.w3.org/Graphics/SVG/1.1/DTD/svg11.dtd">
<svg version="1.1" xmlns="http://www.w3.org/2000/svg" xmlns:xlink="http://www.w3.org/1999/xlink" width="32" height="32" viewBox="0 0 32 32">
<path d="M1 30h30v2h-30v-2z"></path>
<path d="M6.5 14h-4c-0.85 0-1.5 0.65-1.5 1.5v10c0 0.85 0.65 1.5 1.5 1.5h4c0.85 0 1.5-0.65 1.5-1.5v-10c0-0.85-0.65-1.5-1.5-1.5zM6.5 25.5h-4v-10h4v10z"></path>
<path d="M18 0h-4c-0.85 0-1.5 0.65-1.5 1.5v23.9c0 0.85 0.65 1.5 1.5 1.5h4c0.85 0 1.5-0.65 1.5-1.5v-23.9c0-0.85-0.65-1.5-1.5-1.5zM18 25.5h-4v-24h4v24z"></path>
<path d="M29.5 7h-4c-0.85 0-1.5 0.65-1.5 1.5v16.95c0 0.8 0.65 1.5 1.5 1.5h4c0.85 0 1.5-0.7 1.5-1.5v-16.95c0-0.85-0.65-1.5-1.5-1.5zM29.5 25.5h-4v-17h4v17z"></path>
</svg>
