<?xml version="1.0" encoding="utf-8"?>
<!-- Generated by IcoMoon.io -->
<!DOCTYPE svg PUBLIC "-//W3C//DTD SVG 1.1//EN" "http://www.w3.org/Graphics/SVG/1.1/DTD/svg11.dtd">
<svg version="1.1" xmlns="http://www.w3.org/2000/svg" xmlns:xlink="http://www.w3.org/1999/xlink" width="32" height="32" viewBox="0 0 32 32">
<path d="M10 13c0 0.552-0.448 1-1 1s-1-0.448-1-1c0-0.552 0.448-1 1-1s1 0.448 1 1z"></path>
<path d="M15 13c0 0.552-0.448 1-1 1s-1-0.448-1-1c0-0.552 0.448-1 1-1s1 0.448 1 1z"></path>
<path d="M20 13c0 0.552-0.448 1-1 1s-1-0.448-1-1c0-0.552 0.448-1 1-1s1 0.448 1 1z"></path>
<path d="M28 13c0-6.075-6.82-11-14-11s-14 4.925-14 11c0 3.52 1.96 6.646 5 8.658v5.342l6-3c1.007 0 2.249 0 3 0 7.18 0 14-4.925 14-11zM10 23l-4 2v-3.66l-1-0.994c-2.342-1.828-3.818-4.438-3.818-7.346 0-5.523 6.291-10 12.818-10s12.818 4.477 12.818 10c0 5.521-6.291 10-12.818 10-1.039 0-3 0-4 0z"></path>
<path d="M29.984 10.493c0.009 0.168 0.016 0.336 0.016 0.507 0 0.494-0.039 0.971-0.104 1.431 0.582 1.11 0.922 2.31 0.922 3.569 0 2.908-1.477 5.518-3.817 7.346l-1 0.994v3.66l-4-2c-1 0-2.961 0-4 0-1.504 0-2.992-0.247-4.397-0.682-0.337 0.252-0.728 0.481-1.163 0.686 1.746 0.635 3.637 0.996 5.559 0.996 0.752 0 1.992 0 3 0l6 3v-5.342c3.039-2.014 5-5.139 5-8.658 0-2.009-0.757-3.886-2.016-5.507z"></path>
</svg>
