<?xml version="1.0" encoding="utf-8"?>
<!-- Generated by IcoMoon.io -->
<!DOCTYPE svg PUBLIC "-//W3C//DTD SVG 1.1//EN" "http://www.w3.org/Graphics/SVG/1.1/DTD/svg11.dtd">
<svg version="1.1" xmlns="http://www.w3.org/2000/svg" xmlns:xlink="http://www.w3.org/1999/xlink" width="32" height="32" viewBox="0 0 32 32">
<path d="M30 0.5c0 0-26.867 0-28.434 0-1.066 0-1.566 0-1.566 1.566s0 21.927 0 21.927c0 1.080 0.419 1.507 1.5 1.507h5v3.5c0 1.080 1.302 3.588 4.5 1.5l6-5h13c1.079 0 1.5-0.42 1.5-1.5v-22c0-1.081-0.421-1.5-1.5-1.5zM28.5 22.5h-13l-6 4.5v-4.5h-6.5v-19h25.5v19z"></path>
<path d="M7.5 8.5h16.5v3h-16.5v-3z"></path>
<path d="M7.5 14.5h16.5v3h-16.5v-3z"></path>
</svg>
