<?xml version="1.0" encoding="utf-8"?>
<!-- Generated by IcoMoon.io -->
<!DOCTYPE svg PUBLIC "-//W3C//DTD SVG 1.1//EN" "http://www.w3.org/Graphics/SVG/1.1/DTD/svg11.dtd">
<svg version="1.1" xmlns="http://www.w3.org/2000/svg" xmlns:xlink="http://www.w3.org/1999/xlink" width="32" height="32" viewBox="0 0 32 32">
<path d="M26 6h-6v-2c0-1-1-2-2-2h-6c-1 0-2 1-2 2v2h-6c-1 0-2 1-2 2v2c0 1 1 2 2 2v0c0 0 0 0 0 0v16c0 1 1 2 2 2h18c1 0 2-1 2-2v-16c0 0 0 0 0 0v0c1 0 2-1 2-2v-2c0-1-1-2-2-2zM24 28h-18v-16h18v16zM12 4h6v2h-6v-2zM26 10h-22v-2h22v2z"></path>
<path d="M10 14h2v12h-2v-12z"></path>
<path d="M14 14h2v12h-2v-12z"></path>
<path d="M18 14h2v12h-2v-12z"></path>
</svg>
