<?xml version="1.0" encoding="utf-8"?>
<!-- Generated by IcoMoon.io -->
<!DOCTYPE svg PUBLIC "-//W3C//DTD SVG 1.1//EN" "http://www.w3.org/Graphics/SVG/1.1/DTD/svg11.dtd">
<svg version="1.1" xmlns="http://www.w3.org/2000/svg" xmlns:xlink="http://www.w3.org/1999/xlink" width="32" height="32" viewBox="0 0 32 32">
<path d="M16 2c7.851 0 14 4.375 14 9.958 0 4.379-4.492 8.718-10.45 10.092l-0.677 0.157-0.435 0.543c-1.681 2.101-3.836 3.217-6.41 3.322 0.22-0.316 0.449-0.66 0.673-1.021l1.299-3.051-2.572 0.047c-5.727-1.257-9.428-5.2-9.428-10.047 0-5.607 6.149-10 14-10zM16 0c-8.822 0-16 5.168-16 12 0 5.588 4.134 10.494 11 12-0.967 1.564-2.068 2.776-2 3 0.067 0.223 0 1 1 1 0.222 0 0.807 0.082 1.623 0.082 2.039 0 5.52-0.511 8.377-4.082 6.736-1.555 12-6.582 12-12.042 0-6.832-7.176-11.958-16-11.958v0z"></path>
</svg>
