<?xml version="1.0" encoding="utf-8"?>
<!-- Generated by IcoMoon.io -->
<!DOCTYPE svg PUBLIC "-//W3C//DTD SVG 1.1//EN" "http://www.w3.org/Graphics/SVG/1.1/DTD/svg11.dtd">
<svg version="1.1" xmlns="http://www.w3.org/2000/svg" xmlns:xlink="http://www.w3.org/1999/xlink" width="32" height="32" viewBox="0 0 32 32">
<path d="M18.818 15.812c2.5-1.48 4.182-4.197 4.182-7.312 0-4.694-3.805-8.5-8.5-8.5-4.693 0-8.5 3.806-8.5 8.5 0 3.115 1.683 5.832 4.183 7.312-5.413 1.958-10.183 7.219-10.183 12.688 0 0.827 0 3.5 0 3.5h29c0 0 0-2.673 0-3.5 0-5.469-4.769-10.73-10.182-12.688zM8 8.5c0-3.584 2.916-6.5 6.5-6.5s6.5 2.916 6.5 6.5-2.916 6.5-6.5 6.5-6.5-2.916-6.5-6.5zM27 30h-25v-1.5c0-5.599 6.588-11.5 12.5-11.5s12.5 5.901 12.5 11.5v1.5z"></path>
</svg>
