<?xml version="1.0" encoding="utf-8"?>
<!-- Generated by IcoMoon.io -->
<!DOCTYPE svg PUBLIC "-//W3C//DTD SVG 1.1//EN" "http://www.w3.org/Graphics/SVG/1.1/DTD/svg11.dtd">
<svg version="1.1" xmlns="http://www.w3.org/2000/svg" xmlns:xlink="http://www.w3.org/1999/xlink" width="32" height="32" viewBox="0 0 32 32">
<path d="M22.506 0.5h-17.006c-1.657 0-3 1.343-3 3v24c0 1.656 1.343 3 3 3h22c1.656 0 3-1.344 3-3v-18l-7.994-9zM22.505 2.031l6.661 7.469h-4.666c-1.104 0-2-0.896-2-2l0.005-5.469zM29.5 27.5c0 1.104-0.896 2-2 2h-22c-1.104 0-2-0.896-2-2v-24c0-1.104 0.896-2 2-2h16.005l-0.005 6c0 1.657 1.344 3 3 3h5v17z"></path>
<path d="M7.505 10.5h8.995v1h-8.995v-1z"></path>
<path d="M7.505 16.5h18.995v1h-18.995v-1z"></path>
<path d="M7.505 22.501h18.995v0.999h-18.995v-0.999z"></path>
</svg>
