<?xml version="1.0" encoding="utf-8"?>
<!-- Generated by IcoMoon.io -->
<!DOCTYPE svg PUBLIC "-//W3C//DTD SVG 1.1//EN" "http://www.w3.org/Graphics/SVG/1.1/DTD/svg11.dtd">
<svg version="1.1" xmlns="http://www.w3.org/2000/svg" xmlns:xlink="http://www.w3.org/1999/xlink" width="32" height="32" viewBox="0 0 32 32">
<path d="M15.96 29c-0.46 0-0.749-0.297-0.96-0.5-0.458-0.438-11.021-10.566-13.886-14.85-0.718-1.075-1.104-2.235-1.104-3.65 0-4.958 4.032-9.5 8.99-9.5 2.736 0 5.311 1.427 7 3.5 1.689-2.073 4.265-3.5 7-3.5 4.957 0 9 4.541 9 9.5 0 1.415-0.477 2.575-1.192 3.649-2.866 4.285-13.351 14.413-13.808 14.851-0.212 0.203-0.5 0.5-1.040 0.5zM8.992 2.99c-3.748 0-6.56 3.261-6.56 7.010 0 0.972 0.033 1.723 0.506 2.43 2.309 3.454 10.521 11.604 13.061 14.070 2.541-2.466 10.964-10.438 12.983-14.069 0.517-0.931 0.517-1.431 0.529-2.431 0.044-3.748-2.837-7.010-6.585-7.010-2.512 0-4.739 1.288-5.927 3.51-0.191 0.357-0.595 0.5-1 0.5v0c-0.405 0-0.809-0.143-1-0.5-1.187-2.221-3.493-3.51-6.008-3.51z"></path>
</svg>
