<?xml version="1.0" encoding="utf-8"?>
<!-- Generated by IcoMoon.io -->
<!DOCTYPE svg PUBLIC "-//W3C//DTD SVG 1.1//EN" "http://www.w3.org/Graphics/SVG/1.1/DTD/svg11.dtd">
<svg version="1.1" xmlns="http://www.w3.org/2000/svg" xmlns:xlink="http://www.w3.org/1999/xlink" width="32" height="32" viewBox="0 0 32 32">
<path d="M1.16 14.888l10.827 10.828c0 0-2.803 1.837-1.063 6.187l-9.764-17.015z"></path>
<path d="M14.985 30.163l10.828-10.828c0 0 1.837 2.804 6.188 1.064l-17.015 9.764z"></path>
<path d="M30.84 17.112l-10.828-10.828c0 0 2.803-1.837 1.062-6.188l9.765 17.015z"></path>
<path d="M17.015 0.58l-10.828 10.828c0 0-1.837-2.804-6.188-1.064l17.015-9.764z"></path>
<path d="M22.242 14.648c-0.019 2.021-1.178 3.334-1.178 3.334-2.731 2.9-7.624 0.532-7.624 0.532v-0.072c8.96-1.494 7.8-5.759 7.753-5.92-1.098-1.88-2.998-3.143-5.332-3.143-3.497 0-6.262 2.835-6.262 6.332s2.869 6.333 6.366 6.333c3.498 0 6.35-2.835 6.35-6.333 0-0.363-0.015-0.717-0.073-1.062zM13.631 14.369c0-0.634 0.514-1.148 1.148-1.148s1.148 0.514 1.148 1.148-0.514 1.148-1.148 1.148-1.148-0.514-1.148-1.148z"></path>
</svg>
