<?xml version="1.0" encoding="utf-8"?>
<!-- Generated by IcoMoon.io -->
<!DOCTYPE svg PUBLIC "-//W3C//DTD SVG 1.1//EN" "http://www.w3.org/Graphics/SVG/1.1/DTD/svg11.dtd">
<svg version="1.1" xmlns="http://www.w3.org/2000/svg" xmlns:xlink="http://www.w3.org/1999/xlink" width="32" height="32" viewBox="0 0 32 32">
<path d="M30.75 13.867c0-1.598-0.126-1.624-0.5-2l-12.5-11.5c-0.488-0.489-2.012-0.489-2.5 0l-13 11.5c-0.375 0.376-0.5 0.5-0.5 2v15.883c0 0 0.024 1.5 1.623 1.5h9.433c1.101 0 1.444-0.395 1.444-1.5v-8h4l0.010 7.901c0 1.105 0.416 1.599 1.518 1.599h9.471c1.355 0 1.5-1.5 1.5-1.5v-15.883zM27.75 28.25h-6.5v-8.5c0-1.102-0.395-1.5-1.5-1.5h-7c-1.104 0-1.5 0.398-1.5 1.5v8.5h-6.5v-14.883l11.5-10.018 11.51 10.018-0.010 14.883z"></path>
</svg>
