<?xml version="1.0" encoding="utf-8"?>
<!-- Generated by IcoMoon.io -->
<!DOCTYPE svg PUBLIC "-//W3C//DTD SVG 1.1//EN" "http://www.w3.org/Graphics/SVG/1.1/DTD/svg11.dtd">
<svg version="1.1" xmlns="http://www.w3.org/2000/svg" xmlns:xlink="http://www.w3.org/1999/xlink" width="32" height="32" viewBox="0 0 32 32">
<path d="M0 16c0 8.836 7.163 16 16 16s16-7.164 16-16c0-8.838-7.163-16-16-16s-16 7.162-16 16zM19 16l-6-6c-0.694-0.694-1.625-1.854-0.5-3 0.99-1.009 2.305-0.693 3 0l7.5 7.5c0.834 0.979 1 2.084 0 3l-7.5 7.5c-0.695 0.694-2.018 1.152-3 0-0.959-1.125-0.396-2.042 0.5-3l6-6z"></path>
</svg>
