<?xml version="1.0" encoding="utf-8"?>
<!-- Generated by IcoMoon.io -->
<!DOCTYPE svg PUBLIC "-//W3C//DTD SVG 1.1//EN" "http://www.w3.org/Graphics/SVG/1.1/DTD/svg11.dtd">
<svg version="1.1" xmlns="http://www.w3.org/2000/svg" xmlns:xlink="http://www.w3.org/1999/xlink" width="36" height="32" viewBox="0 0 36 32">
<path d="M31.28 7.828l-4.428-4.428c-0.125-0.125-0.289-0.186-0.454-0.186-0.164 0-0.327 0.061-0.453 0.186l-11.545 11.548v5.333h5.333l11.547-11.548c0.124-0.125 0.186-0.289 0.186-0.453s-0.060-0.327-0.186-0.452zM15.999 18.68v-2.602l2.602 2.602h-2.602zM20.031 17.848l-3.2-3.2 7.402-7.402 3.2 3.2-7.402 7.402zM28.565 9.315l-3.2-3.2 1.034-1.034 3.2 3.2-1.034 1.034z"></path>
<path d="M13.6 12.001h-9.6v1.6h9.6v-1.6zM21.066 7.201v-3.734c0-0.589-0.477-1.067-1.067-1.067h-18.132c-0.589 0-1.067 0.478-1.067 1.067v19.733c0 0.589 0.478 1.067 1.067 1.067h18.132c0.589 0 1.067-0.477 1.067-1.067v-1.599h-1.6v1.067l-17.066-0.001v-18.666h17.066v3.201h1.6zM17.332 7.201h-13.332v1.599h13.332v-1.599zM4 18.4h9.6v-1.599h-9.6v1.599z"></path>
<path d="M25.333 22.667c0 0.589-0.478 1.067-1.067 1.067s-1.067-0.478-1.067-1.067c0-0.589 0.478-1.067 1.067-1.067s1.067 0.478 1.067 1.067z"></path>
<path d="M29.6 22.667c0 0.589-0.478 1.067-1.067 1.067s-1.067-0.478-1.067-1.067c0-0.589 0.478-1.067 1.067-1.067s1.067 0.478 1.067 1.067z"></path>
<path d="M33.333 22.667c0 0.589-0.478 1.067-1.067 1.067s-1.067-0.478-1.067-1.067c0-0.589 0.478-1.067 1.067-1.067s1.067 0.478 1.067 1.067z"></path>
</svg>
