<?xml version="1.0" encoding="utf-8"?>
<!-- Generated by IcoMoon.io -->
<!DOCTYPE svg PUBLIC "-//W3C//DTD SVG 1.1//EN" "http://www.w3.org/Graphics/SVG/1.1/DTD/svg11.dtd">
<svg version="1.1" xmlns="http://www.w3.org/2000/svg" xmlns:xlink="http://www.w3.org/1999/xlink" width="32" height="32" viewBox="0 0 32 32">
<path d="M29 10.494c0.115-0.204 0.896-0.354 1-2 0.084-2.042-1.596-3.134-2.5-3.5 0.138-0.45 0.875-1.625 0.5-3s-1.782-2-3.5-2h-9.5c-0.123 0-10.053 2.47-10.053 2.47v-0.001l-2.419 0.531v15c0 0 6.411 4.436 7.973 6.5s5.229 7.5 6.684 7.5c3.919 0.146 4.462-2.583 3.391-6.442-0.399-1.44-0.465-2.769-1.075-4.058h6.97c1.724 0 3.53-1.855 3.53-3.5s-0.842-2.291-1-2.5c0.316-0.334 1.521-0.875 1.5-2.5s-1.138-2.146-1.5-2.5zM28 12.994c0 1.103-1.5 1-1.5 1h-2c-0.719 0-1.5 0.784-1.5 1.5 0 0.701 0.5 1 1.5 1 0 0 1.75-0.007 2.032-0.009s0.823 0.371 0.918 0.84c0.217 1.084-0.445 1.669-0.95 1.669h-8c-0.407 0-1.52 0.124-1.971 1.026s1.21 5.836 1.471 6.474c0.146 0.543 0.916 2.063 0 2.5-1.546 0.738-6.284-6.96-8.5-9-2.468-2.271-4.362-3.433-4.5-3.5v-11.5c0.089 0 10-2.5 10-2.5h9.5c0.537 0 1.014 0.417 1 1-0.020 0.854-1 1-1 1h-1.5c-0.683 0-1.5 0.797-1.5 1.5 0 0.692 0.817 1.5 1.5 1.5h3.5c0.521 0 1 0.415 1 1s-0.526 1-1 1h-2.5c-0.719 0-1 0.799-1 1.5 0 0.685 0.781 1 1.5 1h2.5c0.523 0 1 0.187 1 1z"></path>
</svg>
