<?xml version="1.0" encoding="utf-8"?>
<!-- Generated by IcoMoon.io -->
<!DOCTYPE svg PUBLIC "-//W3C//DTD SVG 1.1//EN" "http://www.w3.org/Graphics/SVG/1.1/DTD/svg11.dtd">
<svg version="1.1" xmlns="http://www.w3.org/2000/svg" xmlns:xlink="http://www.w3.org/1999/xlink" width="32" height="32" viewBox="0 0 32 32">
<path d="M16 8.45c-4.15 0-7.55 3.4-7.55 7.55s3.4 7.55 7.55 7.55c4.15 0 7.55-3.4 7.55-7.55s-3.4-7.55-7.55-7.55zM16 22c-3.3 0-6-2.7-6-6s2.7-6 6-6c3.3 0 6 2.7 6 6s-2.7 6-6 6zM32 18.25v-4.5l-3.9-1.3c-0.25-0.85-0.6-1.7-1.050-2.5l1.85-3.7-3.2-3.2-3.7 1.85c-0.8-0.45-1.6-0.75-2.5-1.050l-1.25-3.85h-4.5l-1.3 3.9c-0.85 0.25-1.7 0.6-2.5 1.050l-3.7-1.85-3.2 3.2 1.85 3.7c-0.45 0.8-0.75 1.6-1.050 2.5l-3.85 1.25v4.5l3.9 1.3c0.25 0.85 0.6 1.7 1.050 2.5l-1.85 3.7 3.2 3.2 3.7-1.85c0.8 0.45 1.6 0.75 2.5 1.050l1.3 3.9h4.5l1.3-3.9c0.85-0.25 1.7-0.6 2.5-1.050l3.7 1.85 3.2-3.2-1.85-3.7c0.45-0.8 0.75-1.6 1.050-2.5l3.8-1.3zM27 25.4l-1.6 1.6-3.4-1.7-0.4 0.2c-0.9 0.55-1.85 0.95-2.85 1.2l-0.4 0.1-1.2 3.65h-2.25l-1.2-3.65-0.4-0.1c-1-0.25-1.95-0.65-2.85-1.2l-0.45-0.2-3.4 1.7-1.6-1.6 1.7-3.45-0.2-0.35c-0.55-0.9-0.95-1.85-1.2-2.85l-0.1-0.4-3.65-1.2v-2.25l3.65-1.2 0.1-0.4c0.25-1 0.65-1.95 1.2-2.85l0.2-0.35-1.7-3.5 1.6-1.6 3.45 1.7 0.35-0.2c0.9-0.55 1.85-0.95 2.85-1.2l0.4-0.1 1.2-3.65h2.25l1.2 3.65 0.4 0.1c1 0.25 1.95 0.65 2.85 1.2l0.35 0.2 3.45-1.7 1.6 1.6-1.65 3.4 0.2 0.35c0.55 0.9 0.95 1.85 1.2 2.85l0.1 0.4 3.65 1.2v2.25l-3.65 1.2-0.1 0.4c-0.25 1-0.65 1.95-1.2 2.85l-0.2 0.5 1.7 3.4z"></path>
</svg>
