<?xml version="1.0" encoding="utf-8"?>
<!-- Generated by IcoMoon.io -->
<!DOCTYPE svg PUBLIC "-//W3C//DTD SVG 1.1//EN" "http://www.w3.org/Graphics/SVG/1.1/DTD/svg11.dtd">
<svg version="1.1" xmlns="http://www.w3.org/2000/svg" xmlns:xlink="http://www.w3.org/1999/xlink" width="32" height="32" viewBox="0 0 32 32">
<path d="M28.543 7.467h-6.799c-0.589 0-1.066 0.478-1.066 1.066 0 0.59 0.478 1.066 1.066 1.066h5.732v18.145h-22.765v-18.144h5.732c0.589 0 1.066-0.477 1.066-1.066s-0.478-1.066-1.066-1.066h-6.798c-0.589 0-1.066 0.478-1.066 1.066v20.277c0 0.59 0.478 1.066 1.066 1.066h24.898c0.589 0 1.066-0.477 1.066-1.066v-20.278c0-0.589-0.477-1.066-1.066-1.066z"></path>
<path d="M10.548 17.060c-0.416 0.416-0.416 1.092 0 1.508l4.808 4.808c0.417 0.417 1.092 0.416 1.508 0l4.808-4.808c0.416-0.416 0.417-1.091 0-1.508-0.416-0.417-1.092-0.417-1.508 0l-2.987 2.987v-17.858c0-0.589-0.478-1.066-1.066-1.066s-1.066 0.478-1.066 1.066v17.857l-2.987-2.987c-0.418-0.416-1.093-0.416-1.51 0.001z"></path>
</svg>
