<?xml version="1.0" encoding="utf-8"?>
<!-- Generated by IcoMoon.io -->
<!DOCTYPE svg PUBLIC "-//W3C//DTD SVG 1.1//EN" "http://www.w3.org/Graphics/SVG/1.1/DTD/svg11.dtd">
<svg version="1.1" xmlns="http://www.w3.org/2000/svg" xmlns:xlink="http://www.w3.org/1999/xlink" width="32" height="32" viewBox="0 0 32 32">
<path d="M6 10h14v2h-14v-2z"></path>
<path d="M31.99 13.89l-14.001 14.001-1.98-1.98 14.001-14.001 1.98 1.98z"></path>
<path d="M6 14h14v2h-14v-2z"></path>
<path d="M6 18h10v2h-10v-2z"></path>
<path d="M12 32l4-2-2-2z"></path>
<path d="M2 4h22v10l2-2v-6c0-2.2-1.8-4-4-4h-18c-2.2 0-4 1.8-4 4v20c0 2.2 1.8 4 4 4h6v-2h-8v-24z"></path>
<path d="M24 28h-6v2h4c2.2 0 4-1.8 4-4v-2l-2 2v2z"></path>
</svg>
