<?xml version="1.0" encoding="utf-8"?>
<!-- Generated by IcoMoon.io -->
<!DOCTYPE svg PUBLIC "-//W3C//DTD SVG 1.1//EN" "http://www.w3.org/Graphics/SVG/1.1/DTD/svg11.dtd">
<svg version="1.1" xmlns="http://www.w3.org/2000/svg" xmlns:xlink="http://www.w3.org/1999/xlink" width="32" height="32" viewBox="0 0 32 32">
<path d="M30.5 19c0.021-1.625-1.184-2.166-1.5-2.5 0.158-0.209 1-0.854 1-2.5s-1.806-3.5-3.53-3.5h-6.97c0.611-1.288 0.677-2.617 1.075-4.058 1.070-3.86 0.529-6.588-3.391-6.442-1.455 0-5.122 5.436-6.684 7.5s-7.973 6.5-7.973 6.5v15l2.419 0.53c0 0 9.931 2.47 10.053 2.47h9.5c1.718 0 3.125-0.625 3.5-2s-0.362-2.55-0.5-3c0.904-0.366 2.584-1.458 2.5-3.5-0.104-1.645-0.885-1.796-1-2 0.362-0.354 1.479-0.875 1.5-2.5zM27 20h-2.5c-0.719 0-1.5 0.314-1.5 1 0 0.701 0.281 1.5 1 1.5h2.5c0.474 0 1 0.416 1 1s-0.479 1-1 1h-3.5c-0.683 0-1.5 0.808-1.5 1.5 0 0.703 0.817 1.5 1.5 1.5h1.5c0 0 0.98 0.146 1 1 0.014 0.584-0.463 1-1 1h-9.5c0 0-9.911-2.5-10-2.5v-11.5c0.138-0.066 2.032-1.229 4.5-3.5 2.216-2.040 6.954-9.738 8.5-9 0.916 0.438 0.146 1.957 0 2.5-0.261 0.638-1.921 5.572-1.471 6.473s1.564 1.027 1.971 1.027h8c0.505 0 1.167 0.585 0.95 1.669-0.094 0.468-0.635 0.841-0.918 0.839s-2.032-0.008-2.032-0.008c-1 0-1.5 0.299-1.5 1 0 0.716 0.781 1.5 1.5 1.5h2c0 0 1.5-0.103 1.5 1-0 0.814-0.477 1-1 1z"></path>
</svg>
