<?xml version="1.0" encoding="utf-8"?>
<!-- Generated by IcoMoon.io -->
<!DOCTYPE svg PUBLIC "-//W3C//DTD SVG 1.1//EN" "http://www.w3.org/Graphics/SVG/1.1/DTD/svg11.dtd">
<svg version="1.1" xmlns="http://www.w3.org/2000/svg" xmlns:xlink="http://www.w3.org/1999/xlink" width="32" height="32" viewBox="0 0 32 32">
<path d="M24 10c0-1.657-1.343-3-3-3h-17c-1.657 0-3 1.343-3 3v13c0 1.657 1.343 3 3 3h17c1.657 0 3-1.343 3-3l7 2v-17l-7 2zM23 24c0 0.553-0.447 1-1 1h-19c-0.552 0-1-0.447-1-1v-15c0-0.552 0.448-1 1-1h19c0.553 0 1 0.448 1 1v15zM30 24l-6-2v-11l6-2v15z"></path>
</svg>
