<?xml version="1.0" encoding="utf-8"?>
<!-- Generated by IcoMoon.io -->
<!DOCTYPE svg PUBLIC "-//W3C//DTD SVG 1.1//EN" "http://www.w3.org/Graphics/SVG/1.1/DTD/svg11.dtd">
<svg version="1.1" xmlns="http://www.w3.org/2000/svg" xmlns:xlink="http://www.w3.org/1999/xlink" width="32" height="32" viewBox="0 0 32 32">
<path d="M27 2h-5c0-0.819-0.672-1.5-1.489-1.5s-1.511 0.681-1.511 1.5h-6.5c0-0.819-0.671-1.5-1.489-1.5s-1.511 0.681-1.511 1.5h-5c-1 0-1.5 0.5-1.5 1.5 0 0.5 0 26.14 0 27.038s0.5 1.462 1.5 1.462c0 0 21.063 0 22.5 0s1.5-0.875 1.5-1.5 0-27 0-27 0.081-1.5-1.5-1.5zM25.5 29h-19.5v-16h19.5v16zM25.5 10h-19.5v-5h3.5v3.5h3v-3.5h6.5v3.5h3v-3.5h3.5v5z"></path>
<path d="M9.5 16.5h12.471v2.971h-12.472v-2.971z"></path>
<path d="M9.5 22.5h12.471v2.971h-12.472v-2.971z"></path>
</svg>
