<?xml version="1.0" encoding="utf-8"?>
<!-- Generated by IcoMoon.io -->
<!DOCTYPE svg PUBLIC "-//W3C//DTD SVG 1.1//EN" "http://www.w3.org/Graphics/SVG/1.1/DTD/svg11.dtd">
<svg version="1.1" xmlns="http://www.w3.org/2000/svg" xmlns:xlink="http://www.w3.org/1999/xlink" width="32" height="32" viewBox="0 0 32 32">
<path d="M8 9h16v2.5h-16v-2.5z"></path>
<path d="M29.463 2.557h-26.663c-0.929 0-1.8 0.924-1.8 1.943v17c0 1.022 1.072 2 2 2h5.021l-0.021 3.5c0 0-0.104 1.271 1 1.5 0.725 0.151 1.5-0.5 1.5-0.5l6.5-4.5h12.5c0.925 0 1.5-0.978 1.5-2v-17c0-1.019-0.613-1.944-1.537-1.944zM28.5 21h-13v0.031l-5 3.469v-3.5h-7v-16h25v16z"></path>
<path d="M8 14h16v2.5h-16v-2.5z"></path>
</svg>
