<?xml version="1.0" encoding="utf-8"?>
<!-- Generated by IcoMoon.io -->
<!DOCTYPE svg PUBLIC "-//W3C//DTD SVG 1.1//EN" "http://www.w3.org/Graphics/SVG/1.1/DTD/svg11.dtd">
<svg version="1.1" xmlns="http://www.w3.org/2000/svg" xmlns:xlink="http://www.w3.org/1999/xlink" width="32" height="32" viewBox="0 0 32 32">
<path d="M11.5 2.5c-0.85 0-1.5 0.65-1.5 1.5s0.65 1.5 1.5 1.5 1.5-0.65 1.5-1.5c0-0.85-0.65-1.5-1.5-1.5zM11.5 10c-0.85 0-1.5 0.65-1.5 1.5s0.65 1.5 1.5 1.5 1.5-0.65 1.5-1.5c0-0.85-0.65-1.5-1.5-1.5zM11.5 19c-0.85 0-1.5 0.65-1.5 1.5s0.65 1.5 1.5 1.5 1.5-0.65 1.5-1.5c0-0.85-0.65-1.5-1.5-1.5zM20.5 5.5c0.85 0 1.5-0.65 1.5-1.5s-0.65-1.5-1.5-1.5-1.5 0.65-1.5 1.5c0 0.85 0.65 1.5 1.5 1.5zM20.5 10c-0.85 0-1.5 0.65-1.5 1.5s0.65 1.5 1.5 1.5 1.5-0.65 1.5-1.5c0-0.85-0.65-1.5-1.5-1.5zM20.5 19c-0.85 0-1.5 0.65-1.5 1.5s0.65 1.5 1.5 1.5 1.5-0.65 1.5-1.5c0-0.85-0.65-1.5-1.5-1.5zM20.5 26.5c-0.85 0-1.5 0.65-1.5 1.5s0.65 1.5 1.5 1.5 1.5-0.65 1.5-1.5c0-0.85-0.65-1.5-1.5-1.5zM11.5 26.5c-0.85 0-1.5 0.65-1.5 1.5s0.65 1.5 1.5 1.5 1.5-0.65 1.5-1.5c0-0.85-0.65-1.5-1.5-1.5z"></path>
</svg>
