<?xml version="1.0" encoding="utf-8"?>
<!-- Generated by IcoMoon.io -->
<!DOCTYPE svg PUBLIC "-//W3C//DTD SVG 1.1//EN" "http://www.w3.org/Graphics/SVG/1.1/DTD/svg11.dtd">
<svg version="1.1" xmlns="http://www.w3.org/2000/svg" xmlns:xlink="http://www.w3.org/1999/xlink" width="32" height="32" viewBox="0 0 32 32">
<path d="M8 8.489h11c1.089 0 1.5-0.411 1.5-1.5v-5c0-1.090-0.411-1.49-1.5-1.49h-11c-1.090 0-1.5 0.399-1.5 1.49v5c0 1.089 0.41 1.5 1.5 1.5zM9.476 3.49h8.024v2.010h-8.024v-2.010zM8 30.5h16c1.089 0 1.5-0.41 1.5-1.5v-5c0-1.090-0.411-1.489-1.5-1.489h-16c-1.090 0-1.5 0.399-1.5 1.489v5c0 1.090 0.41 1.5 1.5 1.5zM9.476 25.5h13.024v2.011h-13.024v-2.011zM8 19.479h22c1.089 0 1.5-0.41 1.5-1.5v-5c0-1.090-0.411-1.479-1.5-1.479h-22c-1.090 0-1.5 0.389-1.5 1.479v5c0 1.090 0.41 1.5 1.5 1.5zM9.476 14.479h19.024v2.021h-19.024v-2.021zM1.5 0.5c-0.819 0-1.5 0.663-1.5 1.482v27.008c0 0.82 0.681 1.5 1.5 1.5s1.5-0.67 1.5-1.489v-27.011c0-0.82-0.682-1.49-1.5-1.49z"></path>
</svg>
