<?xml version="1.0" encoding="utf-8"?>
<!-- Generated by IcoMoon.io -->
<!DOCTYPE svg PUBLIC "-//W3C//DTD SVG 1.1//EN" "http://www.w3.org/Graphics/SVG/1.1/DTD/svg11.dtd">
<svg version="1.1" xmlns="http://www.w3.org/2000/svg" xmlns:xlink="http://www.w3.org/1999/xlink" width="32" height="32" viewBox="0 0 32 32">
<path d="M9.036 31.079l-0.104-0.003c-1.547-0.012-2.783-1.601-2.783-3.15v-2.074h-2.074c-2.074 0-3.111-1.037-3.111-3.111v-16.592c0-2.074 1.037-3.111 2.825-3.111h24.112c2.098 0 3.135 1.037 3.135 3.111v16.592c0 2.074-1.037 3.111-3.111 3.111v0h-13.481c-1.105 1.531-2.868 3.957-3.174 4.263-0.868 0.871-1.852 0.964-2.234 0.964zM4.075 5.112c-1.237 0-1.037 1.037-1.037 1.037v16.592c0 0 0.044 1.081 1.037 1.037h4.148v4.148c0 0.341 0.391 0.946 0.733 0.946l0.085 0.003c0.069-0.001 0.375-0.022 0.67-0.317 0.221-0.245 1.746-2.323 3.084-4.181l0.33-0.458 14.801-0.14c1.037 0 1.037-1.037 1.037-1.037v-16.592c0 0 0-1.037-1.037-1.037h-23.851z"></path>
<path d="M10.815 14.963c0 0.931-0.754 1.685-1.685 1.685s-1.685-0.754-1.685-1.685c0-0.931 0.754-1.685 1.685-1.685s1.685 0.754 1.685 1.685z"></path>
<path d="M17.783 14.963c0 0.931-0.754 1.685-1.685 1.685s-1.685-0.754-1.685-1.685c0-0.931 0.754-1.685 1.685-1.685s1.685 0.754 1.685 1.685z"></path>
<path d="M24.749 14.963c0 0.931-0.754 1.685-1.685 1.685s-1.685-0.754-1.685-1.685c0-0.931 0.754-1.685 1.685-1.685s1.685 0.754 1.685 1.685z"></path>
</svg>
