<?xml version="1.0" encoding="utf-8"?>
<!-- Generated by IcoMoon.io -->
<!DOCTYPE svg PUBLIC "-//W3C//DTD SVG 1.1//EN" "http://www.w3.org/Graphics/SVG/1.1/DTD/svg11.dtd">
<svg version="1.1" xmlns="http://www.w3.org/2000/svg" xmlns:xlink="http://www.w3.org/1999/xlink" width="32" height="32" viewBox="0 0 32 32">
<path d="M6 12c0 1.1 0.9 2 2 2s2-0.9 2-2c0-1.1-0.9-2-2-2s-2 0.9-2 2z"></path>
<path d="M8 16c-1.1 0-2 0.9-2 2s0.9 2 2 2c1.1 0 2-0.9 2-2s-0.9-2-2-2zM8 19c-0.55 0-1-0.45-1-1s0.45-1 1-1c0.55 0 1 0.45 1 1s-0.45 1-1 1z"></path>
<path d="M8 22c-1.1 0-2 0.9-2 2s0.9 2 2 2c1.1 0 2-0.9 2-2s-0.9-2-2-2zM8 25c-0.55 0-1-0.45-1-1s0.45-1 1-1c0.55 0 1 0.45 1 1s-0.45 1-1 1z"></path>
<path d="M12 12c0-0.55 0.45-0.95 1-0.95l12 0.050c0.55 0 1 0.35 1 0.9s-0.45 1-1 1h-12c-0.55 0-1-0.45-1-1z"></path>
<path d="M12 18c0-0.55 0.45-1 1-1h12c0.55 0 1 0.45 1 1s-0.45 1-1 1h-12c-0.55 0-1-0.45-1-1z"></path>
<path d="M12 24c0-0.55 0.45-0.95 1-0.95l8.050-0.050c0.55 0 0.95 0.35 0.95 0.9s-0.45 1-1 1h-8c-0.55 0-1-0.45-1-1z"></path>
<path d="M8.3 4h0.050c0 1.1 0.95 2 2.1 2h10.45c1.15 0 2.1-0.9 2.1-2h0.050v-2h-0.050c0-1.1-0.95-2-2.1-2h-10.45c-1.15 0-2.1 0.9-2.1 2h-0.050v2zM10.5 2h10.4c0 0 0.1 0 0.1 0v2c0 0-10.5 0-10.5 0s0-2 0-2z"></path>
<path d="M30 2h-7.5v2h7.5v26h-28.050v-26.050l7.55 0.050v-2h-7.5c-1.1 0-2 0.9-2 2v26c0 1.050 0.9 1.95 2 1.95h28c1.1 0 2-0.9 2-1.95v-26c0-1.050-0.9-2-2-2z"></path>
</svg>
