<?xml version="1.0" encoding="utf-8"?>
<!-- Generated by IcoMoon.io -->
<!DOCTYPE svg PUBLIC "-//W3C//DTD SVG 1.1//EN" "http://www.w3.org/Graphics/SVG/1.1/DTD/svg11.dtd">
<svg version="1.1" xmlns="http://www.w3.org/2000/svg" xmlns:xlink="http://www.w3.org/1999/xlink" width="32" height="32" viewBox="0 0 32 32">
<path d="M11.857 26.41c0.239-0.28 0.536-0.499 0.911-0.659 0.343-0.163 0.66-0.386 0.938-0.665 0.486-0.349 0.882-0.602 1.183-0.765 0.53-0.324 1.193-0.741 1.982-1.255 0.631-0.462 1.081-0.775 1.361-0.939 0.159-0.278 0.376-0.497 0.658-0.663 0.654-0.395 1.267-0.845 1.844-1.355 0.466-0.326 0.873-0.441 1.217-0.351 0.536 0.143 0.79 0.455 0.77 0.943-0.093 0.459-0.395 0.847-0.907 1.148-0.256 0.163-0.487 0.394-0.696 0.695-0.533 0.444-1.021 0.837-1.458 1.185-0.374 0.183-0.673 0.463-0.909 0.834-0.534 0.511-1.018 0.87-1.462 1.077-0.111 0.233-0.185 0.489-0.206 0.769-0.092 0.395-0.151 0.605-0.177 0.627-0.187-0.022-0.379-0.022-0.591 0-0.157 0.022-0.397 0.048-0.694 0.069-0.092 0-0.154 0.010-0.178 0.035-0.025 0-0.046 0.009-0.067 0.035-0.323 0.206-0.604 0.463-0.836 0.763-0.23 0.232-0.64 0.465-1.218 0.696-0.329 0.142-0.674 0.396-1.043 0.768-0.304 0.231-0.814 0.497-1.532 0.798-0.947 0.465-1.617 0.71-1.984 0.729-0.212-0.019-0.559 0.141-1.047 0.491-0.552 0.37-1.090 0.567-1.596 0.589-0.651 0.073-1.149 0-1.499-0.209-0.44-0.274-0.736-0.693-0.87-1.246-0.069-0.399 0.113-0.816 0.556-1.261 0.417-0.414 0.942-0.635 1.568-0.659 1.065-0.139 1.808-0.348 2.229-0.626 0.276-0.183 0.696-0.325 1.249-0.415 1.301-0.487 2.133-0.883 2.502-1.184v0zM21.26 31.771c-0.578 0.231-1.019 0.314-1.327 0.241-0.389-0.138-0.703-0.219-0.939-0.241-0.484-0.069-0.797-0.219-0.934-0.455-0.096-0.255-0.246-0.494-0.46-0.729-0.208-0.185-0.318-0.391-0.342-0.629-0.051-0.185-0.14-0.352-0.28-0.519-0.258-0.345-0.395-0.709-0.417-1.077-0.027-0.395 0.071-0.667 0.276-0.805 0.326-0.23 0.745-0.207 1.257 0.073 0.228 0.133 0.495 0.321 0.796 0.556 0.165 0.091 0.324 0.141 0.487 0.141 0.443 0.135 1.092 0.089 1.95-0.141 1.112-0.212 1.822-0.465 2.128-0.766 0.111-0.185 0.271-0.291 0.483-0.313 0.485-0.211 1.017-0.673 1.602-1.395 0.209-0.301 0.396-0.535 0.558-0.692 0.416-0.415 0.763-1.093 1.045-2.020 0.184-0.975 0.171-1.67-0.044-2.087-0.251-0.746-0.705-1.404-1.35-1.987-0.117-0.069-0.218-0.116-0.319-0.135-0.321 0.018-0.565 0.044-0.726 0.066-0.35 0.069-0.627 0.116-0.834 0.14-0.232 0.046-0.416 0.081-0.562 0.102-0.135-0.021-0.252-0.252-0.342-0.694-0.141-0.465-0.293-0.871-0.454-1.217-0.097-0.141-0.148-0.245-0.176-0.316-0.117-0.047-0.254-0.069-0.417-0.069-0.604-0.115-1.022-0.125-1.257-0.033-0.438 0.113-0.777 0.14-1.003 0.068-0.026 0-0.048 0-0.072 0-0.114 0.35-0.392 0.662-0.837 0.939-0.257 0.163-0.463 0.36-0.624 0.591-0.466 0.395-0.921 0.745-1.356 1.045-0.33 0.187-0.61 0.429-0.834 0.732-0.519 0.441-0.957 0.767-1.328 0.973-0.234 0.117-0.465 0.294-0.697 0.523-0.348 0.349-0.706 0.624-1.072 0.837-0.308 0.138-0.572 0.343-0.805 0.63-0.232 0.254-0.605 0.465-1.114 0.623-0.274 0.114-0.591 0.348-0.937 0.697-0.302 0.183-0.782 0.416-1.431 0.697-0.856 0.395-1.46 0.587-1.807 0.587-0.19-0.028-0.5 0.116-0.939 0.419-0.487 0.326-0.979 0.498-1.466 0.525-0.603 0.045-1.055-0.036-1.355-0.246-0.417-0.254-0.674-0.639-0.769-1.146-0.072-0.327 0.107-0.699 0.523-1.113 0.397-0.375 0.87-0.57 1.428-0.595 0.999-0.093 1.686-0.256 2.053-0.489 0.232-0.138 0.602-0.252 1.113-0.347 1.185-0.396 1.951-0.743 2.3-1.047 0.211-0.23 0.499-0.416 0.868-0.555 0.326-0.161 0.607-0.36 0.839-0.592 0.437-0.3 0.811-0.517 1.112-0.663 0.512-0.3 1.127-0.67 1.845-1.11 0.581-0.395 0.982-0.673 1.216-0.834 0.186-0.211 0.395-0.395 0.63-0.561 0.51-0.277 0.984-0.588 1.424-0.935l-0.033-0.035c-0.328-0.186-0.487-0.533-0.487-1.046 0.024-0.484 0.29-0.838 0.801-1.045 0.507-0.16 0.987-0.23 1.421-0.21 0.443 0.026 0.92 0.085 1.43 0.175 0.535 0.183 0.942 0.23 1.22 0.139 0.188-0.068 0.431-0.094 0.73-0.068 0.28 0.142 0.599 0.197 0.974 0.171 0.235-0.045 0.499 0.036 0.799 0.242 0.512 0.376 1.044 0.665 1.6 0.874 0.49 0.209 0.818 0.464 0.976 0.769 0.328 0.369 0.781 0.775 1.36 1.215 0.253 0.188 0.394 0.452 0.416 0.802 0.137 0.255 0.313 0.604 0.525 1.044 0.23 0.277 0.335 0.603 0.31 0.975 0.045 0.278 0.155 0.523 0.316 0.729 0.113 0.185 0.123 0.383 0.032 0.594-0.137 0.252-0.161 0.567-0.071 0.937 0.163 0.255 0.099 0.777-0.209 1.571-0.044 0.181-0.069 0.425-0.069 0.726 0 0.396-0.224 0.941-0.662 1.638-0.58 0.697-0.976 1.054-1.184 1.075-0.163 0.117-0.312 0.328-0.45 0.632-0.349 0.46-0.88 0.915-1.603 1.354-1.436 0.974-2.413 1.512-2.925 1.601-0.435 0.094-0.948 0.254-1.527 0.488v0zM9.914 3.439c-0.675-0.185-1.014-0.532-1.014-1.043-0.018-0.511 0.154-0.906 0.52-1.184 0.447-0.371 0.99-0.568 1.635-0.591 0.401-0.023 0.817-0.082 1.253-0.173 0.608-0.233 1.293-0.351 2.060-0.351 0.957-0.020 1.705 0.016 2.264 0.107 0.715 0.186 1.475 0.232 2.258 0.139 1.207-0.164 2.276-0.023 3.2 0.416 0.236 0.165 0.572 0.232 1.010 0.211 0.492 0.020 0.99 0.243 1.5 0.658 0.579 0.351 0.88 0.662 0.908 0.942 0.024 0.277 0.146 0.522 0.38 0.731 0.303 0.324 0.443 0.917 0.417 1.776 0.073 0.416 0.174 0.777 0.316 1.081 0.187 0.3 0.281 0.774 0.281 1.422 0 0.744 0 1.441 0 2.090-0.025 0.974-0.255 1.681-0.703 2.121-0.347 0.537-0.911 0.955-1.702 1.258-0.557 0.324-1.287 0.44-2.196 0.345-0.622-0.044-1.159-0.021-1.599 0.069-0.51 0.187-0.987 0.207-1.43 0.073-0.412-0.185-0.842-0.211-1.281-0.073-0.513 0.259-0.984 0.282-1.427 0.073-0.326-0.141-0.675-0.163-1.047-0.073-0.117 0.419-0.277 0.812-0.485 1.184-0.209 0.327-0.516 0.64-0.936 0.939-0.212 0.166-0.397 0.361-0.562 0.596-0.157 0.348-0.384 0.566-0.658 0.659-0.323 0.116-0.604 0.289-0.837 0.52-0.394 0.419-0.846 0.71-1.359 0.873-0.394 0.185-0.776 0.392-1.149 0.625-0.326 0.257-0.809 0.398-1.46 0.418-0.557 0.025-1.047 0.175-1.462 0.452-0.445 0.206-0.78 0.301-1.009 0.282-0.277-0.025-0.498 0-0.663 0.065-0.551 0.21-1.123 0.231-1.706 0.071-0.462-0.136-0.704-0.291-0.728-0.449-0.022-0.187-0.080-0.292-0.175-0.319-0.089-0.067-0.152-0.217-0.179-0.452-0.041-0.372 0.051-0.694 0.283-0.974 0.208-0.209 0.521-0.382 0.942-0.522 0.44-0.117 0.88-0.127 1.321-0.032 0.3 0.069 0.675 0.103 1.116 0.103 0.438-0.046 0.845-0.172 1.214-0.381 0.353-0.281 0.741-0.431 1.185-0.453 0.444-0.069 0.835-0.257 1.184-0.56 0.326-0.25 0.672-0.417 1.042-0.486 0.535-0.254 0.975-0.59 1.327-1.010 0.138-0.276 0.277-0.495 0.42-0.665-0.585-0.18-1.131-0.155-1.643 0.072-0.346 0.143-0.901 0.098-1.669-0.137-0.812-0.211-1.295-0.502-1.46-0.871-0.072-0.37-0.329-0.709-0.766-1.007-0.345-0.212-0.486-0.675-0.419-1.393-0.022-1.091-0.080-1.984-0.174-2.679-0.115-0.418-0.125-0.834-0.032-1.258 0.041-0.276 0.054-0.562 0.032-0.868-0.024-0.624 0.081-1.183 0.316-1.667 0.159-0.349 0.361-0.606 0.587-0.769 0.215-0.165 0.432-0.253 0.667-0.277 0.274 0.046 0.522 0.112 0.729 0.209 0.206 0.185 0.36 0.451 0.455 0.805 0.159 0.415 0.195 1.083 0.098 2.016-0.163 1.111-0.193 1.957-0.098 2.542 0.137 0.74 0.32 1.258 0.553 1.564 0.28 0.481 0.707 0.809 1.293 0.976 0.852 0.253 1.806 0.228 2.849-0.070 1.345-0.396 2.662-0.439 3.935-0.141 0.81 0.187 1.531 0.161 2.157-0.072 0.628-0.183 1.328-0.266 2.122-0.241 0.668 0.091 1.192-0.083 1.565-0.524 0.304-0.234 0.559-0.663 0.767-1.286 0.092-0.698 0.035-1.301-0.172-1.81-0.167-0.467-0.247-0.885-0.247-1.256-0.020-0.251-0.079-0.522-0.169-0.801-0.281-0.345-0.433-0.591-0.459-0.724-0.093-0.282-0.218-0.469-0.379-0.564-0.252-0.092-0.462-0.208-0.628-0.347-0.233-0.3-1.289-0.498-3.168-0.594-1.301 0.026-2.38-0.010-3.236-0.099-1.162-0.232-2.24-0.105-3.238 0.38-0.837 0.395-1.647 0.522-2.435 0.384v0zM14.513 5.703c0.875-0.187 1.744-0.2 2.606-0.039 0.672 0.189 1.262 0.212 1.773 0.071 0.627-0.163 1.149-0.125 1.571 0.107 0.415 0.299 0.635 0.707 0.657 1.218-0.095 0.484-0.289 0.808-0.593 0.976-0.415 0.184-0.813 0.195-1.184 0.034-0.716-0.189-1.353-0.202-1.91-0.034-0.673 0.252-1.301 0.265-1.882 0.034-0.578-0.14-1.357-0.095-2.328 0.137-0.723 0.233-1.337 0.233-1.846 0-0.372-0.302-0.547-0.673-0.523-1.111 0.048-0.423 0.217-0.779 0.523-1.079 0.3-0.307 0.706-0.375 1.217-0.212 0.487 0.163 1.122 0.128 1.92-0.101v0z"></path>
</svg>
