<?xml version="1.0" encoding="utf-8"?>
<!-- Generated by IcoMoon.io -->
<!DOCTYPE svg PUBLIC "-//W3C//DTD SVG 1.1//EN" "http://www.w3.org/Graphics/SVG/1.1/DTD/svg11.dtd">
<svg version="1.1" xmlns="http://www.w3.org/2000/svg" xmlns:xlink="http://www.w3.org/1999/xlink" width="32" height="32" viewBox="0 0 32 32">
<path d="M27.7 12.3h-2.1v-2.2c0 0 0-10.2-9.7-10.2s-9.6 10.3-9.6 10.3v2.1h-2c-1.1 0-1.9 0.8-1.9 1.9v15.9c0 1 0.9 1.9 1.9 1.9h23.5c1.1 0 1.9-0.8 1.9-1.9v-15.9c-0.1-1-0.9-1.9-2-1.9zM16 2.9c6.5 0 6.9 6.1 6.9 7.3v2.2h-13.8v-2.1c0-1.3 0.4-7.4 6.9-7.4zM27 27.8c0 0.4-0.1 0.8-0.4 1.1s-0.7 0.4-1.1 0.4h-18.9c-0.4 0-0.8-0.1-1.1-0.4s-0.4-0.7-0.4-1.1v-11.3c0-0.8 0.7-1.5 1.5-1.5h18.8c0.8 0 1.5 0.7 1.5 1.5l0.1 11.3z"></path>
</svg>
