<?xml version="1.0" encoding="utf-8"?>
<!-- Generated by IcoMoon.io -->
<!DOCTYPE svg PUBLIC "-//W3C//DTD SVG 1.1//EN" "http://www.w3.org/Graphics/SVG/1.1/DTD/svg11.dtd">
<svg version="1.1" xmlns="http://www.w3.org/2000/svg" xmlns:xlink="http://www.w3.org/1999/xlink" width="32" height="32" viewBox="0 0 32 32">
<path d="M30 0h-28c-1.1 0-2 0.9-2 2v28c0 1.1 0.9 2 2 2h28c1.1 0 2-0.9 2-2v-28c0-1.1-0.9-2-2-2zM30 30h-28v-28h28v28z"></path>
<path d="M4 27h14v-16h-14v16zM6 13h10v12h-10v-12zM20 27h8v-16h-8v16zM22 13h4v12h-4v-12zM4 5v2h24v-2h-24z"></path>
</svg>
