<?xml version="1.0" encoding="utf-8"?>
<!-- Generated by IcoMoon.io -->
<!DOCTYPE svg PUBLIC "-//W3C//DTD SVG 1.1//EN" "http://www.w3.org/Graphics/SVG/1.1/DTD/svg11.dtd">
<svg version="1.1" xmlns="http://www.w3.org/2000/svg" xmlns:xlink="http://www.w3.org/1999/xlink" width="48" height="32" viewBox="0 0 48 32">
<path d="M6.343 23.286h1.432v-1.089h12.065v1.089h1.434v-15.55h-14.931v15.55zM7.777 8.991h12.064v11.986h-12.064v-11.986z"></path>
<path d="M10.17 11.589v7.418h1.333v-0.952h4.596v0.952h1.333v-7.42l-7.263 0.002zM11.504 12.778h4.596v4.092h-4.596v-4.092z"></path>
<path d="M28.253 13.829c0.029-0.835 0.047-1.76 0.057-2.766h4.835v-1.257h-8.232v1.254h2.048c0.005 3.636-0.137 6.1-0.426 7.381-0.231 1.368-0.88 2.654-1.95 3.854 0.344 0.411 0.648 0.801 0.907 1.19 1.766-1.936 2.667-4.736 2.71-8.403h2.587c-0.064 2.1-0.164 3.82-0.279 5.145-0.054 0.86-0.426 1.292-1.118 1.292-0.412 0-0.996-0.038-1.743-0.121 0.125 0.532 0.219 1.007 0.292 1.426 0.612 0.023 1.269 0.029 1.96 0.018 1.196-0.056 1.849-0.832 1.949-2.325 0.1-1.674 0.208-3.905 0.326-6.688h-3.922z"></path>
<path d="M30.348 8.942c-0.446-0.838-0.911-1.62-1.401-2.345l-1.162 0.612c0.453 0.703 0.909 1.49 1.366 2.361l1.196-0.628z"></path>
<path d="M37.838 19.204c1.373-1.976 2.173-4.637 2.394-7.988h1.427v-1.253h-5.946c0.39-1.002 0.71-2.038 0.956-3.11l-1.366-0.237c-0.538 2.671-1.541 5.019-3.029 7.046 0.339 0.388 0.618 0.749 0.861 1.087 0.396-0.55 0.759-1.112 1.091-1.69 0.275 2.467 0.911 4.508 1.909 6.127-1.080 1.222-2.468 2.35-4.165 3.371 0.392 0.383 0.712 0.737 0.972 1.068 1.556-0.993 2.891-2.097 4.012-3.328 1.078 1.294 2.386 2.352 3.918 3.171 0.25-0.395 0.561-0.842 0.941-1.339-1.621-0.681-2.947-1.658-3.976-2.925zM37.020 18.007c-1.004-1.752-1.594-4.017-1.776-6.79h3.63c-0.133 2.778-0.753 5.040-1.854 6.79z"></path>
<path d="M41.804 0.889h-35.449c-2.524 0-4.577 2.040-4.577 4.547v19.355c0 2.504 2.052 4.543 4.577 4.543h35.449c2.526 0 4.576-2.039 4.576-4.543v-19.356c0.001-2.508-2.050-4.546-4.576-4.546zM45.007 24.79c0 1.758-1.439 3.182-3.204 3.182h-35.449c-1.766 0-3.204-1.425-3.204-3.182v-19.356c0-1.756 1.437-3.183 3.204-3.183h35.449c1.764 0 3.202 1.428 3.202 3.183v19.356h0.002z"></path>
</svg>
