<?xml version="1.0" encoding="utf-8"?>
<!-- Generated by IcoMoon.io -->
<!DOCTYPE svg PUBLIC "-//W3C//DTD SVG 1.1//EN" "http://www.w3.org/Graphics/SVG/1.1/DTD/svg11.dtd">
<svg version="1.1" xmlns="http://www.w3.org/2000/svg" xmlns:xlink="http://www.w3.org/1999/xlink" width="32" height="32" viewBox="0 0 32 32">
<path d="M26.3 0.9c-3.65-1.7-8.1-1.050-11.1 1.95-2.75 2.75-3.5 6.65-2.35 10.1l-11.55 11.6c-1.7 1.7-1.7 4.5 0 6.2s4.5 1.7 6.2 0l11.55-11.55c3.45 1.15 7.35 0.35 10.1-2.35 3-3 3.6-7.4 1.95-11.050-0.55 0.6-1.45 1.4-2.7 2.55-1.35 1.35-3.3 1.35-4.65 0s-1.35-3.3 0-4.65c1.25-1.3 2.6-2.8 2.55-2.8zM15.45 13.45c-1.55-2.9-1.15-6.6 1.3-9.050 1.45-1.45 3.4-2.15 5.3-2.2-2 2.15-2 5.5 0.1 7.6s5.45 2.1 7.6 0.1c0 1.9-0.7 3.85-2.2 5.3-2.45 2.45-6.15 2.85-9.050 1.3l-12.55 12.65c-0.85 0.85-2.25 0.85-3.1 0s-0.85-2.25 0-3.1l12.6-12.6z"></path>
</svg>
