<?xml version="1.0" encoding="utf-8"?>
<!-- Generated by IcoMoon.io -->
<!DOCTYPE svg PUBLIC "-//W3C//DTD SVG 1.1//EN" "http://www.w3.org/Graphics/SVG/1.1/DTD/svg11.dtd">
<svg version="1.1" xmlns="http://www.w3.org/2000/svg" xmlns:xlink="http://www.w3.org/1999/xlink" width="32" height="32" viewBox="0 0 32 32">
<path d="M21.307 14.859l-7.363-4.146c-0.271-0.147-0.543-0.213-0.793-0.213-0.646 0-1.151 0.434-1.151 1.006v8.989c0 0.569 0.505 1.005 1.151 1.005 0.25 0 0.521-0.064 0.793-0.213l7.363-4.146c0.422-0.269 0.693-0.752 0.693-1.165s-0.271-0.848-0.693-1.117z"></path>
<path d="M16 0c-8.836 0-16 7.164-16 16 0 8.837 7.164 16 16 16 8.837 0 16-7.163 16-16s-7.163-16-16-16zM16 31c-8.271 0-15-6.729-15-15s6.729-15 15-15c8.271 0 15 6.729 15 15s-6.729 15-15 15z"></path>
</svg>
