<?xml version="1.0" encoding="utf-8"?>
<!-- Generated by IcoMoon.io -->
<!DOCTYPE svg PUBLIC "-//W3C//DTD SVG 1.1//EN" "http://www.w3.org/Graphics/SVG/1.1/DTD/svg11.dtd">
<svg version="1.1" xmlns="http://www.w3.org/2000/svg" xmlns:xlink="http://www.w3.org/1999/xlink" width="32" height="32" viewBox="0 0 32 32">
<path d="M16 0c-8.8 0-16 7.2-16 16s7.2 16 16 16 16-7.2 16-16c0-8.8-7.2-16-16-16zM17.6 27.7h-3.2v-3.2h3.2v3.2zM22.7 13.4c-0.5 0.8-1.4 1.9-2.8 3.1-0.9 0.8-1.5 1.4-1.8 1.8s-0.5 0.8-0.6 1.3c-0.1 0.5-0.2 1.3-0.2 2.4h-2.7c0-0.4 0-0.7 0-0.8 0-1.1 0.2-2.1 0.5-2.9 0.2-0.6 0.6-1.2 1.1-1.8 0.4-0.4 1.1-1.1 2-2 1-0.9 1.6-1.5 1.9-2.1 0.3-0.5 0.4-1.1 0.4-1.7 0-1.1-0.4-2.1-1.3-2.9s-1.9-1.2-3.2-1.2c-1.2 0-2.2 0.4-3 1.1-0.8 0.8-1.3 1.9-1.6 3.5l-2.9-0.3c0.3-2.1 1-3.8 2.3-4.9s3-1.7 5.1-1.7c2.2 0 4 0.6 5.4 1.8 1.3 1.2 2 2.7 2 4.4 0.1 1.1-0.1 2-0.6 2.9z"></path>
</svg>
