<?xml version="1.0" encoding="utf-8"?>
<!-- Generated by IcoMoon.io -->
<!DOCTYPE svg PUBLIC "-//W3C//DTD SVG 1.1//EN" "http://www.w3.org/Graphics/SVG/1.1/DTD/svg11.dtd">
<svg version="1.1" xmlns="http://www.w3.org/2000/svg" xmlns:xlink="http://www.w3.org/1999/xlink" width="34" height="32" viewBox="0 0 34 32">
<path d="M8.984 1.398c1.46-0.069 3.156-0.189 4.157-1.404-0.078 2.115 0 4.232-0.044 6.347 1.737 0 3.477 0.022 5.215-0.006 1.324-0.067 2.811-0.283 3.711-1.368-0.086 5.506-0.014 11.015-0.036 16.521-0.028 1.393 0.192 2.911-0.572 4.16-0.661 1.193-2.037 1.846-3.372 1.846-4.721 0.017-9.442-0.006-14.162 0.008-1.36 0.055-2.917 0.239-3.838 1.374 0.064-6.264-0.017-12.531 0.042-18.792 0.006-1.89 1.568-3.597 3.466-3.705 1.807-0.086 3.622-0.011 5.431-0.033-0.003-1.649-0.006-3.297 0.003-4.948zM4.207 9.538c-0.028 5.576 0.006 11.151-0.014 16.727 3.88 0 7.763 0.011 11.645-0.003 1.096 0.064 2.084-0.91 2.004-2.015 0.014-5.54 0.003-11.079 0.003-16.619-1.579 0.014-3.158 0.008-4.735 0.003-0.006 2.603 0.006 5.209-0.008 7.813 1.463-0.114 3.106 0.369 4.393-0.533-0.283 0.572-0.533 1.252-1.177 1.507-1.013 0.439-2.148 0.219-3.217 0.269-0.006 2.809 0.042 5.62-0.019 8.429-0.080 0.072-0.244 0.216-0.325 0.289-1.221 0.075-2.448 0.017-3.672 0.006-0.247-2.895-0.042-5.817-0.105-8.723-1.457 0.13-3.108-0.38-4.393 0.522 0.239-0.558 0.461-1.213 1.071-1.471 1.038-0.472 2.217-0.241 3.319-0.289-0.003-2.609 0.006-5.215-0.003-7.824-1.055 0.033-2.112-0.036-3.164 0.044-0.919 0.083-1.64 0.952-1.604 1.868z"></path>
<path d="M28.849 4.892c1.279-0.105 2.684-0.355 3.58-1.363-0.072 3.294 0.033 6.591-0.053 9.883-0.039 1.299-0.946 2.478-2.259 2.689 0.763 0.003 1.526 0.017 2.29 0.014-0.008 2.439 0.014 4.879-0.008 7.316 0.008 1.535-0.885 3.114-2.381 3.622-1.291 0.416-2.675 0.247-4.010 0.264-0.003 1.146-0.003 2.29-0.003 3.436-1.138 0.036-2.487 0.142-3.108 1.252 0.064-7.674 0.006-15.348 0.028-23.018-0.036-1.471 0.719-3.006 2.093-3.636 1.188-0.616 2.553-0.358 3.833-0.458zM26.751 6.574c-0.588 0.427-0.78 1.185-0.749 1.879 0.006 5.875 0.008 11.751 0 17.626 0.86-0.036 1.846 0.164 2.578-0.411 0.538-0.386 0.763-1.057 0.744-1.698 0.017-2.426-0.017-4.854 0.011-7.28-1.010-0.011-2.112-0.147-2.961 0.522 0.23-0.452 0.38-0.985 0.808-1.296 0.619-0.475 1.435-0.444 2.173-0.508-0.078-3.094 0.017-6.189-0.050-9.281-0.852 0.064-1.834-0.133-2.553 0.447z"></path>
</svg>
