<?xml version="1.0" encoding="utf-8"?>
<!-- Generated by IcoMoon.io -->
<!DOCTYPE svg PUBLIC "-//W3C//DTD SVG 1.1//EN" "http://www.w3.org/Graphics/SVG/1.1/DTD/svg11.dtd">
<svg version="1.1" xmlns="http://www.w3.org/2000/svg" xmlns:xlink="http://www.w3.org/1999/xlink" width="32" height="32" viewBox="0 0 32 32">
<path d="M24 13v-2h-2v2h2zM17 11h-2v2h2v-2zM10 11h-2v2h2v-2zM30 1h-28c-1.1 0-2 0.9-2 2v18c0 1.1 0.9 2 2 2h14l10 8v-8h4c1.1 0 2-0.9 2-2v-18c0-1.1-0.9-2-2-2zM30 21h-6v6l-8-6h-14v-18h28v18z"></path>
</svg>
