<?xml version="1.0" encoding="utf-8"?>
<!-- Generated by IcoMoon.io -->
<!DOCTYPE svg PUBLIC "-//W3C//DTD SVG 1.1//EN" "http://www.w3.org/Graphics/SVG/1.1/DTD/svg11.dtd">
<svg version="1.1" xmlns="http://www.w3.org/2000/svg" xmlns:xlink="http://www.w3.org/1999/xlink" width="32" height="32" viewBox="0 0 32 32">
<path d="M2.286 15.909c0 3.406 1.234 6.537 3.269 8.937 7.497-3.198 8.434-11.017 8.434-11.017v-11.52c-6.4 1.051-11.703 6.834-11.703 13.6zM9.509 28.066c1.92 1.054 4.137 1.648 6.491 1.648 2.425 0 4.711-0.638 6.674-1.737-5.737-3.451-6.674-8.183-6.674-8.183-1.531 4.139-4.914 7.086-6.491 8.272zM26.535 24.731c1.991-2.4 3.179-5.463 3.179-8.823 0-6.903-5.143-12.594-11.703-13.623v11.497c0.183 5.76 5.714 9.851 8.523 10.949z"></path>
</svg>
