<?xml version="1.0" encoding="utf-8"?>
<!-- Generated by IcoMoon.io -->
<!DOCTYPE svg PUBLIC "-//W3C//DTD SVG 1.1//EN" "http://www.w3.org/Graphics/SVG/1.1/DTD/svg11.dtd">
<svg version="1.1" xmlns="http://www.w3.org/2000/svg" xmlns:xlink="http://www.w3.org/1999/xlink" width="32" height="32" viewBox="0 0 32 32">
<path d="M16 25.3c-0.9 0-1.6 0.7-1.6 1.6s0.7 1.6 1.6 1.6c0.9 0 1.6-0.7 1.6-1.6s-0.7-1.6-1.6-1.6z"></path>
<path d="M24.1 0.1h-16.2c-1.4 0-2.5 1.1-2.5 2.5v27.1c0 1.4 1.1 2.5 2.5 2.5h16.1c1.4 0 2.5-1.1 2.5-2.5v-27.2c0-1.3-1.1-2.4-2.4-2.4zM8.3 2.1h15.4c0.5 0 0.8 0.4 0.8 0.8v18.9h-17v-18.9c0-0.4 0.4-0.8 0.8-0.8zM23.7 30h-15.4c-0.5 0-0.8-0.4-0.8-0.8v-5.2h17v5.2c0 0.4-0.4 0.8-0.8 0.8z"></path>
</svg>
