<?xml version="1.0" encoding="utf-8"?>
<!-- Generated by IcoMoon.io -->
<!DOCTYPE svg PUBLIC "-//W3C//DTD SVG 1.1//EN" "http://www.w3.org/Graphics/SVG/1.1/DTD/svg11.dtd">
<svg version="1.1" xmlns="http://www.w3.org/2000/svg" xmlns:xlink="http://www.w3.org/1999/xlink" width="32" height="32" viewBox="0 0 32 32">
<path d="M26.25 3.75h-3v-1.75c0-0.553-0.386-1.25-0.938-1.25h-12.063c-0.553 0-1 0.697-1 1.25v1.75h-3c-1.104 0-2 0.896-2 2v24c0 1.105 0.896 2 2 2h20c1.105 0 2-0.895 2-2v-24c0-1.104-0.895-2-2-2zM12.25 3.75h8v3h-8v-3zM25.25 28.75h-18v-22h2v1.5c0 0.553 0.447 1 1 1h12c0.552 0 1-0.447 1-1v-2h2v22.5z"></path>
<path d="M23.25 14.25c-0.979-1.261-2-0.5-2-0.5l-6 6.5-3.5-3.5c-0.267-0.267-0.652-0.514-1-0.5-0.313 0.012-0.701 0.142-1 0.5-0.313 0.375-0.267 1.234 0 1.5l4 4.5c0.253 0.253 0.688 0.5 1.5 0.5 0.332 0 0.747-0.247 1-0.5l6.5-6.5c0 0 1.127-1.193 0.5-2z"></path>
</svg>
