<?xml version="1.0" encoding="utf-8"?>
<!-- Generated by IcoMoon.io -->
<!DOCTYPE svg PUBLIC "-//W3C//DTD SVG 1.1//EN" "http://www.w3.org/Graphics/SVG/1.1/DTD/svg11.dtd">
<svg version="1.1" xmlns="http://www.w3.org/2000/svg" xmlns:xlink="http://www.w3.org/1999/xlink" width="32" height="32" viewBox="0 0 32 32">
<path d="M21.5 23.035c0 0.5-0.5 1.5-1 1.5s-2-1.5-4.5-1.5-4 1.5-4.5 1.5-1-1-1-1.5c0-0.938 2.485-2.5 5.5-2.5 3 0 5.5 1.5 5.5 2.5z"></path>
<path d="M16 0.035c-8.836 0-16 7.163-16 16s7.163 16 16 16c8.837 0 16-7.163 16-16s-7.163-16-16-16zM16 30.035c-7.732 0-14-6.267-14-14s6.268-14 14-14c7.733 0 14 6.268 14 14s-6.267 14-14 14z"></path>
<path d="M11.5 14.534c0 1.381-1.119 2.5-2.5 2.5s-2.5-1.119-2.5-2.5c0-1.381 1.119-2.5 2.5-2.5s2.5 1.119 2.5 2.5z"></path>
<path d="M25.5 14.534c0 1.381-1.119 2.5-2.5 2.5s-2.5-1.119-2.5-2.5c0-1.381 1.119-2.5 2.5-2.5s2.5 1.119 2.5 2.5z"></path>
</svg>
