<?xml version="1.0" encoding="utf-8"?>
<!-- Generated by IcoMoon.io -->
<!DOCTYPE svg PUBLIC "-//W3C//DTD SVG 1.1//EN" "http://www.w3.org/Graphics/SVG/1.1/DTD/svg11.dtd">
<svg version="1.1" xmlns="http://www.w3.org/2000/svg" xmlns:xlink="http://www.w3.org/1999/xlink" width="32" height="32" viewBox="0 0 32 32">
<path d="M16 0c-8.836 0-16 7.164-16 16 0 8.837 7.164 16 16 16 8.837 0 16-7.163 16-16s-7.163-16-16-16zM16 31c-8.271 0-15-6.729-15-15s6.729-15 15-15c8.271 0 15 6.729 15 15s-6.729 15-15 15z"></path>
<path d="M19.326 9.551c0 0 1.129 1.186 1.1 2.432-0.008 0.164-0.051 0.449-0.15 0.562s-0.233 0.17-0.398 0.17c-0.157 0-0.286-0.052-0.386-0.157-0.101-0.104-0.155-0.274-0.165-0.51-0.043-0.732-0.42-1.39-1.13-1.974-0.711-0.584-1.641-0.876-2.792-0.876-1.211 0-2.175 0.312-2.89 0.935s-1.072 1.358-1.072 2.204c0 0.436 0.1 0.832 0.301 1.189 0.201 0.358 0.466 0.647 0.798 0.87 0.331 0.223 0.706 0.401 1.124 0.536s1.072 0.277 1.962 0.425c1.489 0.244 2.52 0.493 3.085 0.746 0.759 0.339 1.331 0.811 1.72 1.412 0.388 0.602 0.582 1.312 0.582 2.132 0 1.255-0.501 2.325-1.504 3.21-1.001 0.885-2.353 1.327-4.053 1.327-1.909 0-3.434-0.597-4.577-1.791 0 0-1.105-1.205-1.098-2.406 0-0.271 0.050-0.462 0.15-0.575 0.101-0.113 0.233-0.17 0.399-0.17 0.157 0 0.285 0.052 0.386 0.157 0.1 0.104 0.155 0.274 0.163 0.51 0.043 0.802 0.473 1.531 1.288 2.19 0.815 0.657 1.911 0.986 3.289 0.986s2.465-0.344 3.262-1.032c0.798-0.689 1.197-1.504 1.197-2.445 0-0.575-0.152-1.087-0.457-1.537-0.307-0.448-0.76-0.804-1.361-1.065-0.418-0.183-1.29-0.388-2.615-0.614-1.822-0.305-3.134-0.771-3.936-1.399s-1.203-1.521-1.203-2.681c0-1.15 0.459-2.14 1.379-2.968 0.919-0.83 2.133-1.244 3.641-1.244 1.534 0 2.856 0.483 3.961 1.451z"></path>
</svg>
