<?xml version="1.0" encoding="utf-8"?>
<!-- Generated by IcoMoon.io -->
<!DOCTYPE svg PUBLIC "-//W3C//DTD SVG 1.1//EN" "http://www.w3.org/Graphics/SVG/1.1/DTD/svg11.dtd">
<svg version="1.1" xmlns="http://www.w3.org/2000/svg" xmlns:xlink="http://www.w3.org/1999/xlink" width="32" height="32" viewBox="0 0 32 32">
<path d="M24.955 18.5l6.471-6.5-8.994-1.5c-2.058-0.406-2.886-1.764-3.433-3l-2.977-7-3.023 7c-0.545 1.236-1.219 2.656-3 3l-9.5 1.5 6.51 6.5c1.365 1.25 1.254 2.637 0.99 4l-2 9 8.345-3.684c0.535-0.239 1.107-0.36 1.678-0.36 0.573 0 1.145 0.121 1.678 0.36l8.299 3.684-1.99-9c-0.265-1.365-0.354-2.625 0.945-4z"></path>
</svg>
