<?xml version="1.0" encoding="utf-8"?>
<!-- Generated by IcoMoon.io -->
<!DOCTYPE svg PUBLIC "-//W3C//DTD SVG 1.1//EN" "http://www.w3.org/Graphics/SVG/1.1/DTD/svg11.dtd">
<svg version="1.1" xmlns="http://www.w3.org/2000/svg" xmlns:xlink="http://www.w3.org/1999/xlink" width="32" height="32" viewBox="0 0 32 32">
<path d="M10.5 7v3h11v-3h-11zM21.5 13.5h-11v3h11v-3zM26.5 0h-21c-1.096 0-1.5 0.404-1.5 1.5v29c0 0.916 0.972 1.889 2.5 1l9.559-5.405 9.441 5.405c1.334 0.666 2.5 0.139 2.5-1v-29c-0.002-1.097-0.402-1.5-1.5-1.5zM25 27.5l-8-4.5c-1-0.5-1-0.5-2 0l-8 4.5v-24.5h18v24.5z"></path>
</svg>
