<?xml version="1.0" encoding="utf-8"?>
<!-- Generated by IcoMoon.io -->
<!DOCTYPE svg PUBLIC "-//W3C//DTD SVG 1.1//EN" "http://www.w3.org/Graphics/SVG/1.1/DTD/svg11.dtd">
<svg version="1.1" xmlns="http://www.w3.org/2000/svg" xmlns:xlink="http://www.w3.org/1999/xlink" width="32" height="32" viewBox="0 0 32 32">
<path d="M22.9 11.3l-8.3 8.3-3.8-3.8c-0.4-0.4-1.1-0.4-1.5 0s-0.4 1.1 0 1.5l4.5 4.5c0.2 0.2 0.5 0.3 0.7 0.3 0.3 0 0.5-0.1 0.7-0.3l9.1-9.1c0.4-0.4 0.4-1.1 0-1.5-0.4-0.3-1-0.3-1.4 0.1z"></path>
<path d="M29.6 5.3l-0.2-0.7h-0.8c-4.4 0-8.5-1.4-11.9-4.1l-0.7-0.5-0.6 0.5c-3.5 2.7-7.6 4.1-12 4.1h-0.8l-0.2 0.7c-1.6 5.3-1.1 10.9 1.3 15.9 2.5 5 6.7 8.8 11.9 10.7l0.4 0.1 0.4-0.1c5.2-1.9 9.4-5.7 11.9-10.7 2.4-5 2.9-10.6 1.3-15.9zM16 29.8c-9.3-3.6-14.3-13.5-11.8-23.1 2.2-0.1 4.3-0.5 6.3-1.2 1.9-0.7 3.8-1.7 5.5-2.9 1.7 1.2 3.5 2.2 5.5 2.9s4.2 1.1 6.3 1.2c2.5 9.6-2.5 19.5-11.8 23.1z"></path>
</svg>
