<?xml version="1.0" encoding="utf-8"?>
<!-- Generated by IcoMoon.io -->
<!DOCTYPE svg PUBLIC "-//W3C//DTD SVG 1.1//EN" "http://www.w3.org/Graphics/SVG/1.1/DTD/svg11.dtd">
<svg version="1.1" xmlns="http://www.w3.org/2000/svg" xmlns:xlink="http://www.w3.org/1999/xlink" width="32" height="32" viewBox="0 0 32 32">
<path d="M2.5 26.5c-1.504 0-2.5-0.997-2.5-2.5 0-8.647 6.542-16.265 15-17.5v-3.5c0-0.963 0.132-1.585 1-2 0.861-0.41 2.186-0.17 2.922 0.426l12.078 9.574c0.596 0.479 1.002 1.249 1 2.015 0 0.761-0.404 1.508-1 1.985l-12 10c-1.209 0.73-2.151 0.561-3 0-0.584-0.386-0.989-0.927-1-2.5 0 0 0-1.794 0-2s0.084-0.469-1-0.5c-6.526 0.029-8.97 3.951-9.204 4.424-0.271 0.552-0.893 2.076-2.296 2.076zM17 3.5c0.003 0.197 0-0.112 0 0v4c0 1.219-0.423 1.449-1 1.5-7.806 0.666-14 7.159-14 15 0 0.16 0.104 0.573 0.5 0 0.075-0.070 0.252-0.494 0.5-1 0.844-1.656 5.125-5.313 11-5.5 0.735-0.023 1 0 2 0 1 0.042 0.989 0.698 1 1v4.5c0 0 0 0.5 0.5 0l12-9.5c0.067-0.053 0.066-0.448 0-0.5 0 0-11.792-9.822-12-10s-0.511-0.229-0.5 0.5z"></path>
</svg>
