<?xml version="1.0" encoding="utf-8"?>
<!-- Generated by IcoMoon.io -->
<!DOCTYPE svg PUBLIC "-//W3C//DTD SVG 1.1//EN" "http://www.w3.org/Graphics/SVG/1.1/DTD/svg11.dtd">
<svg version="1.1" xmlns="http://www.w3.org/2000/svg" xmlns:xlink="http://www.w3.org/1999/xlink" width="32" height="32" viewBox="0 0 32 32">
<path d="M5.5 17.5h20v1h-20v-1z"></path>
<path d="M19.5 8.5h6v1h-6v-1z"></path>
<path d="M19.5 11.5h6v1h-6v-1z"></path>
<path d="M19.5 14.5h6v1h-6v-1z"></path>
<path d="M5.5 20.5h20v1h-20v-1z"></path>
<path d="M5.5 23.5h20v1h-20v-1z"></path>
<path d="M26.5 0.5h-22c-1.657 0-3 1.343-3 3v24c0 1.657 1.343 3 3 3h22c1.657 0 3-1.343 3-3v-24c0-1.657-1.343-3-3-3zM28.5 27.5c0 1.104-0.896 2-2 2h-22c-1.104 0-2-0.896-2-2v-24c0-1.104 0.896-2 2-2h22c1.104 0 2 0.896 2 2v24z"></path>
<path d="M17.5 6.5h-12v9h12v-9zM16.5 14.5h-10v-7h10v7z"></path>
</svg>
