<?xml version="1.0" encoding="utf-8"?>
<!-- Generated by IcoMoon.io -->
<!DOCTYPE svg PUBLIC "-//W3C//DTD SVG 1.1//EN" "http://www.w3.org/Graphics/SVG/1.1/DTD/svg11.dtd">
<svg version="1.1" xmlns="http://www.w3.org/2000/svg" xmlns:xlink="http://www.w3.org/1999/xlink" width="32" height="32" viewBox="0 0 32 32">
<path d="M32 2c0-1.15-0.9-2.050-2-2h-14c-0.8 0-1.4 0.55-1.95 1.1v0l-12.7 12.65c-1.75 1.75-1.8 4.55-0.1 6.25l10.8 10.75c1.7 1.7 4.5 1.65 6.25-0.1l11.9-11.9c0.9-0.9 1.8-1.65 1.8-2.8v-13.95zM30 16c0 0.55-1 1.25-1.55 1.8l-12.45 12.45c-0.9 0.85-2.7-0.95-3.55-1.8l-10.7-10.65c-0.85-0.85-0.9-0.9 0-1.8l13.45-13c0.5-0.5 0.2-1 0.8-1h12.5c0.55 0 1.5 0.95 1.5 1.5v12.5z"></path>
<path d="M22.25 5.5c-2.35 0-4.25 1.9-4.25 4.25s1.9 4.25 4.25 4.25 4.25-1.9 4.25-4.25-1.9-4.25-4.25-4.25zM22.25 12.5c-1.5 0-2.75-1.25-2.75-2.75s1.25-2.75 2.75-2.75 2.75 1.25 2.75 2.75-1.25 2.75-2.75 2.75z"></path>
</svg>
