<?xml version="1.0" encoding="utf-8"?>
<!-- Generated by IcoMoon.io -->
<!DOCTYPE svg PUBLIC "-//W3C//DTD SVG 1.1//EN" "http://www.w3.org/Graphics/SVG/1.1/DTD/svg11.dtd">
<svg version="1.1" xmlns="http://www.w3.org/2000/svg" xmlns:xlink="http://www.w3.org/1999/xlink" width="32" height="32" viewBox="0 0 32 32">
<path d="M29.867 29.156l-6.756-6.933c1.956-2.311 2.844-5.156 2.844-8.356 0-7.111-5.511-12.978-12.267-12.978-6.578 0-12.089 5.867-12.089 12.978s5.511 12.978 12.267 12.978c3.022 0 5.867-1.067 7.822-3.022l6.756 6.933c0.356 0.356 1.067 0.356 1.422 0 0.533-0.533 0.533-1.244 0-1.6zM3.733 13.867c0-6.044 4.444-10.667 10.133-10.667s10.133 4.978 10.133 10.667c0 6.044-4.444 10.667-10.133 10.667s-10.133-4.8-10.133-10.667z"></path>
</svg>
