<?xml version="1.0" encoding="utf-8"?>
<!-- Generated by IcoMoon.io -->
<!DOCTYPE svg PUBLIC "-//W3C//DTD SVG 1.1//EN" "http://www.w3.org/Graphics/SVG/1.1/DTD/svg11.dtd">
<svg version="1.1" xmlns="http://www.w3.org/2000/svg" xmlns:xlink="http://www.w3.org/1999/xlink" width="32" height="32" viewBox="0 0 32 32">
<path d="M8.83 15.203l0.045 7.973c0.002 0.445 0.363 0.809 0.803 0.809h0.002l10.914-0.066c0.215 0 0.418-0.082 0.566-0.242 0.148-0.152 0.234-0.355 0.234-0.57l-0.047-7.977c-0.004-0.445-0.367-0.805-0.809-0.805l-1.066 0.008-0.012-1.914c-0.016-2.43-1.98-4.402-4.414-4.402-2.422 0.012-4.379 2.016-4.363 4.453l0.012 1.91-1.070 0.008c-0.439 0.004-0.799 0.367-0.795 0.816zM15.123 9.621c1.58 0 2.873 1.297 2.881 2.891l0.012 1.684-5.766 0.035-0.012-1.688c-0.008-1.602 1.277-2.91 2.885-2.922zM20.055 15.602l0.035 7.023-9.828 0.059-0.043-7.020 9.836-0.063zM28.375 17.957l2.797-5.371-2.195-0.008c-1.527-6.465-7.203-11.016-13.838-11.016h-0.082c-3.822 0.023-7.408 1.547-10.096 4.289s-4.154 6.375-4.133 10.234c0.021 3.855 1.531 7.469 4.25 10.18 2.699 2.691 6.268 4.172 10.059 4.172h0.082c4.586-0.031 8.914-2.297 11.582-6.066l-1.066-0.754c-3.203 4.008-7.695 5.52-10.561 5.574-2.486 0.051-6.732-1.355-9.244-3.863-2.533-2.527-3.805-5.629-3.824-9.223-0.021-3.594 1.262-6.773 3.766-9.324 2.502-2.559 6.676-3.941 9.313-3.902 5.75 0.090 11.039 4.609 12.422 9.727h-2.801l3.57 5.352z"></path>
</svg>
