<?xml version="1.0" encoding="utf-8"?>
<!-- Generated by IcoMoon.io -->
<!DOCTYPE svg PUBLIC "-//W3C//DTD SVG 1.1//EN" "http://www.w3.org/Graphics/SVG/1.1/DTD/svg11.dtd">
<svg version="1.1" xmlns="http://www.w3.org/2000/svg" xmlns:xlink="http://www.w3.org/1999/xlink" width="32" height="32" viewBox="0 0 32 32">
<path d="M16 0c-8.836 0-16 7.164-16 16 0 8.837 7.164 16 16 16 8.837 0 16-7.163 16-16s-7.163-16-16-16zM15.989 30.99c-8.284 0-15-6.716-15-15.001s6.716-15 15-15c8.285 0 15.001 6.716 15.001 15 0 8.285-6.716 15.001-15.001 15.001z"></path>
<path d="M15.664 21.145c-0.26 0-0.48 0.090-0.659 0.269s-0.269 0.398-0.269 0.659 0.089 0.48 0.269 0.659 0.398 0.268 0.659 0.268 0.48-0.090 0.659-0.269 0.269-0.398 0.269-0.659c0-0.267-0.088-0.488-0.264-0.664s-0.397-0.263-0.664-0.263z"></path>
<path d="M15.996 8.684c-1.224 0-2.197 0.163-2.92 0.853s-1.114 1.463-1.172 2.463h1.27c0.065 0 0.348-1.198 0.85-1.653s1.143-0.592 1.924-0.592 1.422 0.27 1.924 0.719c0.5 0.449 0.752 1.045 0.752 1.742 0 0.521-0.129 0.985-0.387 1.369s-0.694 0.787-1.313 1.197c-0.69 0.449-1.185 0.905-1.484 1.36-0.3 0.456-0.44 1.005-0.44 1.643v1.215h1v-1.029c0-0.547 0.263-0.991 0.491-1.333s0.735-0.718 1.374-1.128c0.689-0.443 1.242-0.933 1.584-1.47s0.532-1.157 0.532-1.86c0-1.002-0.368-1.836-1.12-2.5s-1.7-0.996-2.865-0.996z"></path>
</svg>
