<?xml version="1.0" encoding="utf-8"?>
<!-- Generator: Adobe Illustrator 21.0.0, SVG Export Plug-In . SVG Version: 6.00 Build 0)  -->
<svg version="1.1" id="图层_1" xmlns="http://www.w3.org/2000/svg" xmlns:xlink="http://www.w3.org/1999/xlink" x="0px" y="0px"
	 viewBox="0 0 20 20" style="enable-background:new 0 0 20 20;" xml:space="preserve">
<title>Group 4</title>
<desc>Created with Sketch.</desc>
<rect x="0" y="9.5" width="11" height="1"/>
<rect x="16" y="9.5" width="4" height="1"/>
<path d="M15,7.5h-3c-0.5,0-1,0.5-1,1v3c0,0.5,0.5,1,1,1h3c0.5,0,1-0.5,1-1v-3C16,8,15.5,7.5,15,7.5z M15,11.5h-3v-3h3V11.5z"/>
<rect x="0" y="2.5" width="4" height="1"/>
<rect x="9" y="2.5" width="11" height="1"/>
<path d="M8,0.5H5c-0.5,0-1,0.5-1,1v3c0,0.5,0.5,1,1,1h3c0.5,0,1-0.5,1-1v-3C9,1,8.5,0.5,8,0.5z M8,4.5H5v-3h3V4.5z"/>
<rect x="0" y="16.5" width="4" height="1"/>
<rect x="9" y="16.5" width="11" height="1"/>
<path d="M8,14.5H5c-0.5,0-1,0.5-1,1v3c0,0.5,0.5,1,1,1h3c0.5,0,1-0.5,1-1v-3C9,15,8.5,14.5,8,14.5z M8,18.5H5v-3h3V18.5z"/>
</svg>
