<?xml version="1.0" encoding="utf-8"?>
<!-- Generated by IcoMoon.io -->
<!DOCTYPE svg PUBLIC "-//W3C//DTD SVG 1.1//EN" "http://www.w3.org/Graphics/SVG/1.1/DTD/svg11.dtd">
<svg version="1.1" xmlns="http://www.w3.org/2000/svg" xmlns:xlink="http://www.w3.org/1999/xlink" width="32" height="32" viewBox="0 0 32 32">
<path d="M22.857 4.8v2.743c2.743 1.829 4.571 5.029 4.571 8.686s-1.829 6.857-4.571 8.686v2.743c4.114-1.829 6.857-6.4 6.857-11.429s-2.743-9.6-6.857-11.429z"></path>
<path d="M17.143 2.514c-0.229 0-0.457 0-0.686 0.229l-10.057 8.457h-2.514c-0.914-0.229-1.6 0.686-1.6 1.6v6.857c0 0.914 0.686 1.829 1.6 1.829 0 0 2.743 0 2.971 0.229l9.6 8.229c0.229 0 0.457 0 0.686 0 0.686 0 1.143-0.686 1.143-1.6v-24.229c0-0.914-0.457-1.6-1.143-1.6z"></path>
</svg>
