<?xml version="1.0" encoding="utf-8"?>
<!-- Generated by IcoMoon.io -->
<!DOCTYPE svg PUBLIC "-//W3C//DTD SVG 1.1//EN" "http://www.w3.org/Graphics/SVG/1.1/DTD/svg11.dtd">
<svg version="1.1" xmlns="http://www.w3.org/2000/svg" xmlns:xlink="http://www.w3.org/1999/xlink" width="32" height="32" viewBox="0 0 32 32">
<path d="M21.306 14.859l-7.362-4.146c-0.271-0.147-0.543-0.213-0.793-0.213-0.646 0-1.151 0.434-1.151 1.006v8.989c0 0.57 0.505 1.005 1.151 1.005 0.25 0 0.521-0.065 0.793-0.213l7.362-4.146c0.422-0.269 0.694-0.752 0.694-1.165s-0.272-0.848-0.694-1.117zM20.784 16.288l-7.319 4.122c-0.109 0.060-0.218 0.091-0.314 0.091-0.072 0-0.12-0.018-0.14-0.018-0.006 0-0.010 0.002-0.011 0.006l-0.013-8.942c0.008-0.010 0.061-0.046 0.164-0.046 0.096 0 0.206 0.032 0.302 0.084l7.332 4.13c0.154 0.104 0.211 0.23 0.215 0.261-0.003 0.060-0.080 0.216-0.216 0.312z"></path>
<path d="M16 0c-8.836 0-16 7.164-16 16 0 8.837 7.164 16 16 16 8.837 0 16-7.163 16-16s-7.163-16-16-16zM16 31c-8.271 0-15-6.729-15-15s6.729-15 15-15c8.271 0 15 6.729 15 15s-6.729 15-15 15z"></path>
</svg>
