<?xml version="1.0" encoding="utf-8"?>
<!-- Generated by IcoMoon.io -->
<!DOCTYPE svg PUBLIC "-//W3C//DTD SVG 1.1//EN" "http://www.w3.org/Graphics/SVG/1.1/DTD/svg11.dtd">
<svg version="1.1" xmlns="http://www.w3.org/2000/svg" xmlns:xlink="http://www.w3.org/1999/xlink" width="32" height="32" viewBox="0 0 32 32">
<path d="M22.4 8.891c0.754 1.074 3.52 0.046 3.909 2.4 0.251 1.554 0 2.309 0.983 2.217 0.894-0.069 2.446-3.017-0.32-5.12-3.017-2.263-5.166-0.389-4.571 0.503zM21.669 3.954c0.32 1.143 2.741 0.777 4.638 1.166 0.937 0.183 2.651 1.326 3.451 4.114 0.802 2.789-1.003 5.349 0.937 5.577 1.6 0.206 1.465-5.029 0.937-6.743-0.549-1.737-2.24-4.503-5.646-5.44-3.403-0.937-4.661 0.137-4.318 1.326zM7.291 22.037c0.389 2.398 3.109 3.952 6.034 3.474 2.857-0.457 4.8-2.697 4.434-5.003-0.389-2.313-2.949-3.867-5.806-3.502-2.926 0.366-5.051 2.629-4.663 5.031zM8.823 22.331c-0.16-0.914 0.526-1.826 1.577-2.034 1.029-0.206 2.011 0.366 2.194 1.278 0.16 0.937-0.526 1.831-1.577 2.037-1.029 0.229-2.011-0.366-2.194-1.28zM15.703 11.886c-0.48-0.503 1.371-2.994-0.343-4.411-1.943-1.623-6.469 0.48-10.354 3.977-3.909 3.497-5.554 7.497-4.846 11.017 0.686 3.543 7.177 7.909 16.251 7.131 9.074-0.779 12.526-7.819 12.094-10.583-0.437-2.743-3.088-2.951-3.771-3.086-0.711-0.137-2.080-0.046-1.054-1.371 1.054-1.349 0.549-3.063-0.8-3.634-1.326-0.549-3.634-0.069-4.709 0.434-1.44 0.686-2.469 0.526-2.469 0.526zM3.634 21.486c-0.389-3.451 3.566-7.017 8.914-7.726 5.349-0.686 10.469 1.783 10.834 5.237 0.389 3.449-4.046 7.381-9.394 8.066-5.326 0.688-9.966-2.126-10.354-5.577z"></path>
</svg>
